<?xml version="1.0" encoding="utf-8"?>
<!-- Generator: Adobe Illustrator 21.0.2, SVG Export Plug-In . SVG Version: 6.00 Build 0)  -->
<svg version="1.1" xmlns="http://www.w3.org/2000/svg" xmlns:xlink="http://www.w3.org/1999/xlink" x="0px" y="0px"
	 viewBox="0 0 1600 900" style="enable-background:new 0 0 1600 900;" xml:space="preserve">
<style type="text/css">
	.st0{fill:#62BFBD;}
	.st1{fill:#F26F67;}
	.st2{fill:#231F20;}
	.st3{fill:none;stroke:#231F20;stroke-width:0.6172;stroke-linecap:round;stroke-miterlimit:10;}
	.st4{fill:none;stroke:#231F20;stroke-width:0.4673;stroke-linecap:round;stroke-miterlimit:10;}
	.st5{fill:none;stroke:#231F20;stroke-width:0.9345;stroke-linecap:round;stroke-miterlimit:10;}
	.st6{fill:#F0D820;}
	.st7{fill:#FFFFFF;}
	.st8{fill:#FFFFFF;stroke:#231F20;stroke-width:0.4083;stroke-linecap:round;stroke-linejoin:round;stroke-miterlimit:10;}
	.st9{fill:#FFFFFF;stroke:#231F20;stroke-width:0.5857;stroke-linecap:round;stroke-linejoin:round;stroke-miterlimit:10;}
	.st10{fill:#FDECF3;}
	.st11{fill:#00A297;}
	.st12{fill:#FCE37E;}
	.st13{fill:#FFFFFF;stroke:#231F20;stroke-width:0.2488;stroke-miterlimit:10;}
	.st14{fill:none;stroke:#231F20;stroke-width:0.2974;stroke-linecap:round;stroke-miterlimit:10;}
	.st15{fill:#FFFFFF;stroke:#231F20;stroke-width:0.3377;stroke-miterlimit:10;}
	.st16{fill:none;stroke:#231F20;stroke-width:0.4037;stroke-linecap:round;stroke-miterlimit:10;}
	.st17{fill:#F37769;}
	.st18{fill:none;stroke:#231F20;stroke-width:1.4904;stroke-linecap:round;stroke-miterlimit:10;}
	.st19{fill:none;stroke:#231F20;stroke-width:1.5532;stroke-linecap:round;stroke-miterlimit:10;}
	.st20{fill:#70AADC;}
	.st21{fill:#C7A49A;}
	.st22{fill:none;stroke:#231F20;stroke-width:3.4992;stroke-linecap:round;stroke-miterlimit:10;}
	.st23{fill:#A71E22;}
	.st24{fill:none;stroke:#231F20;stroke-width:2.3903;stroke-linecap:round;stroke-miterlimit:10;}
	.st25{fill:none;stroke:#231F20;stroke-width:1.8039;stroke-linecap:round;stroke-miterlimit:10;}
	.st26{fill:#FFFFFF;stroke:#231F20;stroke-width:0.4141;stroke-miterlimit:10;}
	.st27{fill:none;stroke:#231F20;stroke-width:0.495;stroke-linecap:round;stroke-miterlimit:10;}
	.st28{fill:none;stroke:#231F20;stroke-width:1.142;stroke-linecap:round;stroke-miterlimit:10;}
	.st29{fill:none;stroke:#231F20;stroke-width:1.1901;stroke-linecap:round;stroke-miterlimit:10;}
	.st30{fill:none;stroke:#231F20;stroke-width:1.8237;stroke-linecap:round;stroke-miterlimit:10;}
	.st31{opacity:0.6;fill:#FFFFFF;}
	.st32{fill:#F47E6C;}
</style>
<g id="Layer_1">
</g>
<g id="Layer_2">
</g>
<g id="Layer_3">
	<path class="st0" d="M-12-11h1642v853.4C1168.1,568.6,648.5,410.4-12,431V-11z"/>
	<g>
		<path class="st1" d="M1468.7,249.5c4.8-6.5,7.7-14.6,7.7-23.4c0-21.6-17.5-39.2-39.2-39.2c-21.6,0-39.2,17.5-39.2,39.2
			c0,8.7,2.9,16.8,7.7,23.3c-0.2,0.6-0.3,1.2-0.3,1.9c0,3.7,3,6.7,6.7,6.7c3.7,0,6.7-3,6.7-6.7c0-0.6-0.1-1.3-0.3-1.9h37.3
			c-0.2,0.6-0.3,1.2-0.3,1.9c0,3.7,3,6.7,6.7,6.7s6.7-3,6.7-6.7C1468.9,250.7,1468.8,250.1,1468.7,249.5L1468.7,249.5z"/>
		<ellipse class="st2" cx="1451.9" cy="215.9" rx="3.6" ry="6.1"/>
		<ellipse class="st2" cx="1422.5" cy="215.9" rx="3.6" ry="6.1"/>
		<path class="st3" d="M1437.2,229.8c1.2,10.5,13.6,8.3,13.6-3.2"/>
		<path class="st3" d="M1437.2,229.8c-1.2,10.5-13.6,8.3-13.6-3.2"/>
	</g>
	<g>
		<path class="st1" d="M1604,113c4.8-6.5,7.7-14.6,7.7-23.4c0-21.6-17.5-39.2-39.2-39.2s-39.2,17.5-39.2,39.2
			c0,8.7,2.9,16.8,7.7,23.3c-0.2,0.6-0.3,1.2-0.3,1.9c0,3.7,3,6.7,6.7,6.7c3.7,0,6.7-3,6.7-6.7c0-0.6-0.1-1.3-0.3-1.9h37.3
			c-0.2,0.6-0.3,1.2-0.3,1.9c0,3.7,3,6.7,6.7,6.7c3.7,0,6.7-3,6.7-6.7C1604.2,114.2,1604.1,113.5,1604,113L1604,113z"/>
		<ellipse class="st2" cx="1587.2" cy="79.4" rx="3.6" ry="6.1"/>
		<ellipse class="st2" cx="1557.8" cy="79.4" rx="3.6" ry="6.1"/>
		<path class="st3" d="M1572.5,93.3c1.2,10.5,13.6,8.3,13.6-3.2"/>
		<path class="st3" d="M1572.5,93.3c-1.2,10.5-13.6,8.3-13.6-3.2"/>
	</g>
	<g>
		<path class="st1" d="M1384.8,155.6c4.8-6.5,7.7-14.6,7.7-23.4c0-21.6-17.5-39.2-39.2-39.2s-39.2,17.5-39.2,39.2
			c0,8.7,2.9,16.8,7.7,23.3c-0.2,0.6-0.3,1.2-0.3,1.9c0,3.7,3,6.7,6.7,6.7c3.7,0,6.7-3,6.7-6.7c0-0.6-0.1-1.3-0.3-1.9h37.3
			c-0.2,0.6-0.3,1.2-0.3,1.9c0,3.7,3,6.7,6.7,6.7c3.7,0,6.7-3,6.7-6.7C1385,156.8,1384.9,156.1,1384.8,155.6L1384.8,155.6z"/>
		<ellipse class="st2" cx="1368" cy="122" rx="3.6" ry="6.1"/>
		<ellipse class="st2" cx="1338.6" cy="122" rx="3.6" ry="6.1"/>
		<path class="st3" d="M1353.3,135.9c1.2,10.5,13.6,8.3,13.6-3.2"/>
		<path class="st3" d="M1353.3,135.9c-1.2,10.5-13.6,8.3-13.6-3.2"/>
	</g>
	<g>
		<path class="st1" d="M1058.3,273.8c4.8-6.5,7.7-14.6,7.7-23.4c0-21.6-17.5-39.2-39.2-39.2s-39.2,17.5-39.2,39.2
			c0,8.7,2.9,16.8,7.7,23.3c-0.2,0.6-0.3,1.2-0.3,1.9c0,3.7,3,6.7,6.7,6.7s6.7-3,6.7-6.7c0-0.6-0.1-1.3-0.3-1.9h37.3
			c-0.2,0.6-0.3,1.2-0.3,1.9c0,3.7,3,6.7,6.7,6.7c3.7,0,6.7-3,6.7-6.7C1058.5,275.1,1058.4,274.4,1058.3,273.8L1058.3,273.8z"/>
		<ellipse class="st2" cx="1041.6" cy="240.3" rx="3.6" ry="6.1"/>
		<ellipse class="st2" cx="1012.1" cy="240.3" rx="3.6" ry="6.1"/>
		<path class="st3" d="M1026.9,254.2c1.2,10.5,13.6,8.3,13.6-3.2"/>
		<path class="st3" d="M1026.9,254.2c-1.2,10.5-13.6,8.3-13.6-3.2"/>
	</g>
	<g>
		<path class="st1" d="M1038.9,166.6c4.8-6.5,7.7-14.6,7.7-23.4c0-21.6-17.5-39.2-39.2-39.2c-21.6,0-39.2,17.5-39.2,39.2
			c0,8.7,2.9,16.8,7.7,23.3c-0.2,0.6-0.3,1.2-0.3,1.9c0,3.7,3,6.7,6.7,6.7c3.7,0,6.7-3,6.7-6.7c0-0.6-0.1-1.3-0.3-1.9h37.3
			c-0.2,0.6-0.3,1.2-0.3,1.9c0,3.7,3,6.7,6.7,6.7c3.7,0,6.7-3,6.7-6.7C1039.1,167.8,1039,167.2,1038.9,166.6L1038.9,166.6z"/>
		<ellipse class="st2" cx="1022.1" cy="133" rx="3.6" ry="6.1"/>
		<ellipse class="st2" cx="992.7" cy="133" rx="3.6" ry="6.1"/>
		<path class="st3" d="M1007.4,146.9c1.2,10.5,13.6,8.3,13.6-3.2"/>
		<path class="st3" d="M1007.4,146.9c-1.2,10.5-13.6,8.3-13.6-3.2"/>
	</g>
	<g>
		<path class="st1" d="M752.9,182.2c4.8-6.5,7.7-14.6,7.7-23.4c0-21.6-17.5-39.2-39.2-39.2s-39.2,17.5-39.2,39.2
			c0,8.7,2.9,16.8,7.7,23.3c-0.2,0.6-0.3,1.2-0.3,1.9c0,3.7,3,6.7,6.7,6.7s6.7-3,6.7-6.7c0-0.6-0.1-1.3-0.3-1.9H740
			c-0.2,0.6-0.3,1.2-0.3,1.9c0,3.7,3,6.7,6.7,6.7s6.7-3,6.7-6.7C753.1,183.5,753,182.8,752.9,182.2L752.9,182.2z"/>
		<ellipse class="st2" cx="736.2" cy="148.7" rx="3.6" ry="6.1"/>
		<ellipse class="st2" cx="706.7" cy="148.7" rx="3.6" ry="6.1"/>
		<path class="st3" d="M721.4,162.6c1.2,10.5,13.6,8.3,13.6-3.2"/>
		<path class="st3" d="M721.4,162.6c-1.2,10.5-13.6,8.3-13.6-3.2"/>
	</g>
	<g>
		<path class="st1" d="M780.6,326c4.8-6.5,7.7-14.6,7.7-23.4c0-21.6-17.5-39.2-39.2-39.2s-39.2,17.5-39.2,39.2
			c0,8.7,2.9,16.8,7.7,23.3c-0.2,0.6-0.3,1.2-0.3,1.9c0,3.7,3,6.7,6.7,6.7s6.7-3,6.7-6.7c0-0.6-0.1-1.3-0.3-1.9h37.3
			c-0.2,0.6-0.3,1.2-0.3,1.9c0,3.7,3,6.7,6.7,6.7s6.7-3,6.7-6.7C780.8,327.2,780.7,326.6,780.6,326L780.6,326z"/>
		<ellipse class="st2" cx="763.8" cy="292.4" rx="3.6" ry="6.1"/>
		<ellipse class="st2" cx="734.4" cy="292.4" rx="3.6" ry="6.1"/>
		<path class="st3" d="M749.1,306.4c1.2,10.5,13.6,8.3,13.6-3.2"/>
		<path class="st3" d="M749.1,306.4c-1.2,10.5-13.6,8.3-13.6-3.2"/>
	</g>
	<g>
		<path class="st1" d="M194,354.3c3.7-4.9,5.8-11.1,5.8-17.7c0-16.4-13.3-29.7-29.7-29.7s-29.7,13.3-29.7,29.7
			c0,6.6,2.2,12.7,5.8,17.6c-0.1,0.5-0.2,0.9-0.2,1.4c0,2.8,2.3,5.1,5.1,5.1c2.8,0,5.1-2.3,5.1-5.1c0-0.5-0.1-1-0.2-1.4h28.2
			c-0.1,0.4-0.2,0.9-0.2,1.4c0,2.8,2.3,5.1,5.1,5.1s5.1-2.3,5.1-5.1C194.2,355.2,194.1,354.7,194,354.3L194,354.3z"/>
		<ellipse class="st2" cx="181.3" cy="328.9" rx="2.7" ry="4.6"/>
		<ellipse class="st2" cx="159" cy="328.9" rx="2.7" ry="4.6"/>
		<path class="st4" d="M170.2,339.4c0.9,7.9,10.3,6.3,10.3-2.4"/>
		<path class="st4" d="M170.2,339.4c-0.9,7.9-10.3,6.3-10.3-2.4"/>
	</g>
	<g>
		<path class="st1" d="M180.7,154.2c3.7-4.9,5.8-11.1,5.8-17.7c0-16.4-13.3-29.7-29.7-29.7s-29.7,13.3-29.7,29.7
			c0,6.6,2.2,12.7,5.8,17.6c-0.1,0.5-0.2,0.9-0.2,1.4c0,2.8,2.3,5.1,5.1,5.1c2.8,0,5.1-2.3,5.1-5.1c0-0.5-0.1-1-0.2-1.4h28.2
			c-0.1,0.4-0.2,0.9-0.2,1.4c0,2.8,2.3,5.1,5.1,5.1s5.1-2.3,5.1-5.1C180.8,155.1,180.8,154.7,180.7,154.2L180.7,154.2z"/>
		<ellipse class="st2" cx="168" cy="128.8" rx="2.7" ry="4.6"/>
		<ellipse class="st2" cx="145.7" cy="128.8" rx="2.7" ry="4.6"/>
		<path class="st4" d="M156.9,139.3c0.9,7.9,10.3,6.3,10.3-2.4"/>
		<path class="st4" d="M156.9,139.3c-0.9,7.9-10.3,6.3-10.3-2.4"/>
	</g>
	<g>
		<path class="st1" d="M170.4,36.2c3.7-4.9,5.8-11.1,5.8-17.7c0-16.4-13.3-29.7-29.7-29.7s-29.7,13.3-29.7,29.7
			c0,6.6,2.2,12.7,5.8,17.6c-0.1,0.5-0.2,0.9-0.2,1.4c0,2.8,2.3,5.1,5.1,5.1s5.1-2.3,5.1-5.1c0-0.5-0.1-1-0.2-1.4h28.2
			c-0.1,0.4-0.2,0.9-0.2,1.4c0,2.8,2.3,5.1,5.1,5.1s5.1-2.3,5.1-5.1C170.6,37.1,170.5,36.6,170.4,36.2L170.4,36.2z"/>
		<ellipse class="st2" cx="157.7" cy="10.8" rx="2.7" ry="4.6"/>
		<ellipse class="st2" cx="135.4" cy="10.8" rx="2.7" ry="4.6"/>
		<path class="st4" d="M146.6,21.3c0.9,7.9,10.3,6.3,10.3-2.4"/>
		<path class="st4" d="M146.6,21.3c-0.9,7.9-10.3,6.3-10.3-2.4"/>
	</g>
	<g>
		<path class="st1" d="M170.4,276.4c3.7-4.9,5.8-11.1,5.8-17.7c0-16.4-13.3-29.7-29.7-29.7s-29.7,13.3-29.7,29.7
			c0,6.6,2.2,12.7,5.8,17.6c-0.1,0.5-0.2,0.9-0.2,1.4c0,2.8,2.3,5.1,5.1,5.1s5.1-2.3,5.1-5.1c0-0.5-0.1-1-0.2-1.4h28.2
			c-0.1,0.4-0.2,0.9-0.2,1.4c0,2.8,2.3,5.1,5.1,5.1s5.1-2.3,5.1-5.1C170.6,277.3,170.5,276.8,170.4,276.4L170.4,276.4z"/>
		<ellipse class="st2" cx="157.7" cy="251" rx="2.7" ry="4.6"/>
		<ellipse class="st2" cx="135.4" cy="251" rx="2.7" ry="4.6"/>
		<path class="st4" d="M146.6,261.5c0.9,7.9,10.3,6.3,10.3-2.4"/>
		<path class="st4" d="M146.6,261.5c-0.9,7.9-10.3,6.3-10.3-2.4"/>
	</g>
	<g>
		<path class="st1" d="M492.3,94.3c3.7-4.9,5.8-11.1,5.8-17.7c0-16.4-13.3-29.7-29.7-29.7c-16.4,0-29.7,13.3-29.7,29.7
			c0,6.6,2.2,12.7,5.8,17.6c-0.1,0.5-0.2,0.9-0.2,1.4c0,2.8,2.3,5.1,5.1,5.1c2.8,0,5.1-2.3,5.1-5.1c0-0.5-0.1-1-0.2-1.4h28.2
			c-0.1,0.4-0.2,0.9-0.2,1.4c0,2.8,2.3,5.1,5.1,5.1c2.8,0,5.1-2.3,5.1-5.1C492.4,95.2,492.4,94.8,492.3,94.3L492.3,94.3z"/>
		<ellipse class="st2" cx="479.6" cy="68.9" rx="2.7" ry="4.6"/>
		<ellipse class="st2" cx="457.3" cy="68.9" rx="2.7" ry="4.6"/>
		<path class="st4" d="M468.5,79.4c0.9,7.9,10.3,6.3,10.3-2.4"/>
		<path class="st4" d="M468.5,79.4c-0.9,7.9-10.3,6.3-10.3-2.4"/>
	</g>
	<g>
		<path class="st1" d="M686.5,226.1c3.7-4.9,5.8-11.1,5.8-17.7c0-16.4-13.3-29.7-29.7-29.7S633,192.1,633,208.5
			c0,6.6,2.2,12.7,5.8,17.6c-0.1,0.5-0.2,0.9-0.2,1.4c0,2.8,2.3,5.1,5.1,5.1c2.8,0,5.1-2.3,5.1-5.1c0-0.5-0.1-1-0.2-1.4h28.2
			c-0.1,0.4-0.2,0.9-0.2,1.4c0,2.8,2.3,5.1,5.1,5.1c2.8,0,5.1-2.3,5.1-5.1C686.7,227,686.6,226.6,686.5,226.1L686.5,226.1z"/>
		<ellipse class="st2" cx="673.8" cy="200.7" rx="2.7" ry="4.6"/>
		<ellipse class="st2" cx="651.5" cy="200.7" rx="2.7" ry="4.6"/>
		<path class="st4" d="M662.7,211.3c0.9,7.9,10.3,6.3,10.3-2.4"/>
		<path class="st4" d="M662.7,211.3c-0.9,7.9-10.3,6.3-10.3-2.4"/>
	</g>
	<g>
		<path class="st1" d="M798.6,420c7.3-9.9,11.7-22.1,11.7-35.4c0-32.8-26.6-59.3-59.3-59.3c-32.8,0-59.3,26.6-59.3,59.3
			c0,13.2,4.3,25.4,11.6,35.3c-0.3,0.9-0.4,1.9-0.4,2.9c0,5.6,4.5,10.1,10.1,10.1s10.1-4.5,10.1-10.1c0-1-0.1-1.9-0.4-2.8h56.4
			c-0.3,0.9-0.4,1.8-0.4,2.8c0,5.6,4.5,10.1,10.1,10.1s10.1-4.5,10.1-10.1C798.9,421.8,798.8,420.8,798.6,420L798.6,420z"/>
		<ellipse class="st2" cx="773.2" cy="369.1" rx="5.5" ry="9.3"/>
		<ellipse class="st2" cx="728.7" cy="369.1" rx="5.5" ry="9.3"/>
		<path class="st5" d="M751,390.2c1.8,15.9,20.6,12.6,20.6-4.8"/>
		<path class="st5" d="M751,390.2c-1.8,15.9-20.6,12.6-20.6-4.8"/>
	</g>
	<g>
		<path class="st1" d="M1225.4,521.7c7.3-9.9,11.7-22.1,11.7-35.4c0-32.8-26.6-59.3-59.3-59.3s-59.3,26.6-59.3,59.3
			c0,13.2,4.3,25.4,11.6,35.3c-0.3,0.9-0.4,1.9-0.4,2.9c0,5.6,4.5,10.1,10.1,10.1c5.6,0,10.1-4.5,10.1-10.1c0-1-0.1-1.9-0.4-2.8
			h56.4c-0.3,0.9-0.4,1.8-0.4,2.8c0,5.6,4.5,10.1,10.1,10.1s10.1-4.5,10.1-10.1C1225.7,523.6,1225.5,522.6,1225.4,521.7
			L1225.4,521.7z"/>
		<ellipse class="st2" cx="1200" cy="470.9" rx="5.5" ry="9.3"/>
		<ellipse class="st2" cx="1155.4" cy="470.9" rx="5.5" ry="9.3"/>
		<path class="st5" d="M1177.7,492c1.8,15.9,20.6,12.6,20.6-4.8"/>
		<path class="st5" d="M1177.7,492c-1.8,15.9-20.6,12.6-20.6-4.8"/>
	</g>
	<g>
		<path class="st1" d="M1626.5,573.6c7.3-9.9,11.7-22.1,11.7-35.4c0-32.8-26.6-59.3-59.3-59.3s-59.3,26.6-59.3,59.3
			c0,13.2,4.3,25.4,11.6,35.3c-0.3,0.9-0.4,1.9-0.4,2.9c0,5.6,4.5,10.1,10.1,10.1c5.6,0,10.1-4.5,10.1-10.1c0-1-0.1-1.9-0.4-2.8
			h56.4c-0.3,0.9-0.4,1.8-0.4,2.8c0,5.6,4.5,10.1,10.1,10.1c5.6,0,10.1-4.5,10.1-10.1C1626.9,575.4,1626.7,574.5,1626.5,573.6
			L1626.5,573.6z"/>
		<ellipse class="st2" cx="1601.2" cy="522.7" rx="5.5" ry="9.3"/>
		<ellipse class="st2" cx="1556.6" cy="522.7" rx="5.5" ry="9.3"/>
		<path class="st5" d="M1578.9,543.8c1.8,15.9,20.6,12.6,20.6-4.8"/>
		<path class="st5" d="M1578.9,543.8c-1.8,15.9-20.6,12.6-20.6-4.8"/>
	</g>
	<g>
		<circle class="st6" cx="1526.2" cy="37.3" r="41.8"/>
		<path class="st7" d="M1541.9,21.4c0,0-11.8-1-9.9,15.6c6.1-8.3,13.2-8.9,19.9,0C1553.8,20.4,1541.9,21.4,1541.9,21.4z"/>
		<path class="st2" d="M1545.7,27.8c0-2.2-1.8-4-4-4s-4,1.8-4,4c0,1.4,0.7,2.5,1.7,3.3c1.6-0.5,3.2-0.6,4.8-0.1
			C1545.1,30.2,1545.7,29,1545.7,27.8z"/>
		<path class="st7" d="M1508.8,21.4c0,0-11.8-1-9.9,15.6c6.1-8.3,13.2-8.9,19.9,0C1520.6,20.4,1508.8,21.4,1508.8,21.4z"/>
		<path class="st2" d="M1512.5,27.8c0-2.2-1.8-4-4-4s-4,1.8-4,4c0,1.4,0.7,2.5,1.7,3.3c1.6-0.5,3.2-0.6,4.8-0.1
			C1511.9,30.2,1512.5,29,1512.5,27.8z"/>
		<path class="st8" d="M1544.6,39.1h-1.6c0,0,1.9,7.8-4.6,7.8c-6.5,0-13.3,0-13.3,0s-6.7,0-13.3,0c-6.5,0-4.6-7.8-4.6-7.8h-1.6
			c0,0-0.5,1.7,0,12.2c0.5,10.5,19.5,10.5,19.5,10.5s19,0,19.5-10.5C1545.1,40.8,1544.6,39.1,1544.6,39.1z"/>
		<path class="st2" d="M1505.5,49.3c0,0,2.8,6,21.4,4.7c18.6-1.3,18-7.1,18-7.1C1544,53.9,1512,57.4,1505.5,49.3z"/>
		<path class="st2" d="M1509.8,40.8c0,0-3-3.7-7.7,0.4c0,0,1.9-3.7,4.3-3.2C1508.6,38.4,1509.8,40.8,1509.8,40.8z"/>
		<path class="st2" d="M1547.6,40.8c0,0-3-3.7-7.7,0.4c0,0,1.9-3.7,4.3-3.2C1546.5,38.4,1547.6,40.8,1547.6,40.8z"/>
	</g>
	<g>
		<circle class="st6" cx="1490" cy="311" r="41.8"/>
		<path class="st7" d="M1505.8,295.1c0,0-11.8-1-9.9,15.6c6.1-8.3,13.2-8.9,19.9,0C1517.7,294.1,1505.8,295.1,1505.8,295.1z"/>
		<path class="st2" d="M1509.6,301.4c0-2.2-1.8-4-4-4s-4,1.8-4,4c0,1.4,0.7,2.5,1.7,3.3c1.6-0.5,3.2-0.6,4.8-0.1
			C1509,303.9,1509.6,302.7,1509.6,301.4z"/>
		<path class="st7" d="M1472.7,295.1c0,0-11.8-1-9.9,15.6c6.1-8.3,13.2-8.9,19.9,0C1484.5,294.1,1472.7,295.1,1472.7,295.1z"/>
		<path class="st2" d="M1476.4,301.4c0-2.2-1.8-4-4-4c-2.2,0-4,1.8-4,4c0,1.4,0.7,2.5,1.7,3.3c1.6-0.5,3.2-0.6,4.8-0.1
			C1475.8,303.9,1476.4,302.7,1476.4,301.4z"/>
		<path class="st8" d="M1508.5,312.7h-1.6c0,0,1.9,7.8-4.6,7.8c-6.5,0-13.3,0-13.3,0s-6.7,0-13.3,0s-4.6-7.8-4.6-7.8h-1.6
			c0,0-0.5,1.7,0,12.2s19.5,10.5,19.5,10.5s19,0,19.5-10.5C1509,314.5,1508.5,312.7,1508.5,312.7z"/>
		<path class="st2" d="M1469.4,322.9c0,0,2.8,6,21.4,4.7c18.6-1.3,18-7.1,18-7.1C1507.9,327.6,1475.9,331.1,1469.4,322.9z"/>
		<path class="st2" d="M1473.6,314.4c0,0-3-3.7-7.7,0.4c0,0,1.9-3.7,4.3-3.2C1472.5,312.1,1473.6,314.4,1473.6,314.4z"/>
		<path class="st2" d="M1511.5,314.5c0,0-3-3.7-7.7,0.4c0,0,1.9-3.7,4.3-3.2C1510.4,312.1,1511.5,314.5,1511.5,314.5z"/>
	</g>
	<g>
		<circle class="st6" cx="1261" cy="146" r="41.8"/>
		<path class="st7" d="M1276.8,130.1c0,0-11.8-1-9.9,15.6c6.1-8.3,13.2-8.9,19.9,0C1288.7,129.1,1276.8,130.1,1276.8,130.1z"/>
		<path class="st2" d="M1280.6,136.4c0-2.2-1.8-4-4-4s-4,1.8-4,4c0,1.4,0.7,2.5,1.7,3.3c1.6-0.5,3.2-0.6,4.8-0.1
			C1280,138.9,1280.6,137.7,1280.6,136.4z"/>
		<path class="st7" d="M1243.7,130.1c0,0-11.8-1-9.9,15.6c6.1-8.3,13.2-8.9,19.9,0C1255.5,129.1,1243.7,130.1,1243.7,130.1z"/>
		<path class="st2" d="M1247.4,136.4c0-2.2-1.8-4-4-4c-2.2,0-4,1.8-4,4c0,1.4,0.7,2.5,1.7,3.3c1.6-0.5,3.2-0.6,4.8-0.1
			C1246.8,138.9,1247.4,137.7,1247.4,136.4z"/>
		<path class="st8" d="M1279.5,147.7h-1.6c0,0,1.9,7.8-4.6,7.8c-6.5,0-13.3,0-13.3,0s-6.7,0-13.3,0s-4.6-7.8-4.6-7.8h-1.6
			c0,0-0.5,1.7,0,12.2s19.5,10.5,19.5,10.5s19,0,19.5-10.5C1280,149.5,1279.5,147.7,1279.5,147.7z"/>
		<path class="st2" d="M1240.4,157.9c0,0,2.8,6,21.4,4.7s18-7.1,18-7.1C1278.9,162.6,1246.9,166.1,1240.4,157.9z"/>
		<path class="st2" d="M1244.6,149.4c0,0-3-3.7-7.7,0.4c0,0,1.9-3.7,4.3-3.2C1243.5,147.1,1244.6,149.4,1244.6,149.4z"/>
		<path class="st2" d="M1282.5,149.5c0,0-3-3.7-7.7,0.4c0,0,1.9-3.7,4.3-3.2C1281.4,147.1,1282.5,149.5,1282.5,149.5z"/>
	</g>
	<g>
		<circle class="st6" cx="1260" cy="614.1" r="41.8"/>
		<path class="st7" d="M1275.8,598.2c0,0-11.8-1-9.9,15.6c6.1-8.3,13.2-8.9,19.9,0C1287.7,597.2,1275.8,598.2,1275.8,598.2z"/>
		<path class="st2" d="M1279.6,604.5c0-2.2-1.8-4-4-4s-4,1.8-4,4c0,1.4,0.7,2.5,1.7,3.3c1.6-0.5,3.2-0.6,4.8-0.1
			C1278.9,606.9,1279.6,605.8,1279.6,604.5z"/>
		<path class="st7" d="M1242.6,598.2c0,0-11.8-1-9.9,15.6c6.1-8.3,13.2-8.9,19.9,0C1254.5,597.2,1242.6,598.2,1242.6,598.2z"/>
		<path class="st2" d="M1246.4,604.5c0-2.2-1.8-4-4-4s-4,1.8-4,4c0,1.4,0.7,2.5,1.7,3.3c1.6-0.5,3.2-0.6,4.8-0.1
			C1245.8,606.9,1246.4,605.8,1246.4,604.5z"/>
		<path class="st8" d="M1278.4,615.8h-1.6c0,0,1.9,7.8-4.6,7.8c-6.5,0-13.3,0-13.3,0s-6.7,0-13.3,0c-6.5,0-4.6-7.8-4.6-7.8h-1.6
			c0,0-0.5,1.7,0,12.2c0.5,10.5,19.5,10.5,19.5,10.5s19,0,19.5-10.5C1278.9,617.5,1278.4,615.8,1278.4,615.8z"/>
		<path class="st2" d="M1239.3,626c0,0,2.8,6,21.4,4.7c18.6-1.3,18-7.1,18-7.1C1277.9,630.7,1245.9,634.2,1239.3,626z"/>
		<path class="st2" d="M1243.6,617.5c0,0-3-3.7-7.7,0.4c0,0,1.9-3.7,4.3-3.2C1242.5,615.1,1243.6,617.5,1243.6,617.5z"/>
		<path class="st2" d="M1281.5,617.5c0,0-3-3.7-7.7,0.4c0,0,1.9-3.7,4.3-3.2C1280.3,615.2,1281.5,617.5,1281.5,617.5z"/>
	</g>
	<g>
		<circle class="st6" cx="841.8" cy="155.5" r="41.8"/>
		<path class="st7" d="M857.5,139.6c0,0-11.8-1-9.9,15.6c6.1-8.3,13.2-8.9,19.9,0C869.4,138.6,857.5,139.6,857.5,139.6z"/>
		<path class="st2" d="M861.3,145.9c0-2.2-1.8-4-4-4c-2.2,0-4,1.8-4,4c0,1.4,0.7,2.5,1.7,3.3c1.6-0.5,3.2-0.6,4.8-0.1
			C860.7,148.3,861.3,147.2,861.3,145.9z"/>
		<path class="st7" d="M824.4,139.6c0,0-11.8-1-9.9,15.6c6.1-8.3,13.2-8.9,19.9,0C836.2,138.6,824.4,139.6,824.4,139.6z"/>
		<path class="st2" d="M828.1,145.9c0-2.2-1.8-4-4-4c-2.2,0-4,1.8-4,4c0,1.4,0.7,2.5,1.7,3.3c1.6-0.5,3.2-0.6,4.8-0.1
			C827.5,148.3,828.1,147.2,828.1,145.9z"/>
		<path class="st8" d="M860.2,157.2h-1.6c0,0,1.9,7.8-4.6,7.8c-6.5,0-13.3,0-13.3,0s-6.7,0-13.3,0c-6.5,0-4.6-7.8-4.6-7.8h-1.6
			c0,0-0.5,1.7,0,12.2c0.5,10.5,19.5,10.5,19.5,10.5s19,0,19.5-10.5C860.7,159,860.2,157.2,860.2,157.2z"/>
		<path class="st2" d="M821.1,167.4c0,0,2.8,6,21.4,4.7c18.6-1.3,18-7.1,18-7.1C859.6,172.1,827.6,175.6,821.1,167.4z"/>
		<path class="st2" d="M825.4,158.9c0,0-3-3.7-7.7,0.4c0,0,1.9-3.7,4.3-3.2C824.2,156.6,825.4,158.9,825.4,158.9z"/>
		<path class="st2" d="M863.2,159c0,0-3-3.7-7.7,0.4c0,0,1.9-3.7,4.3-3.2C862.1,156.6,863.2,159,863.2,159z"/>
	</g>
	<g>
		<circle class="st6" cx="1080.3" cy="450" r="41.8"/>
		<path class="st7" d="M1096.1,434.1c0,0-11.8-1-9.9,15.6c6.1-8.3,13.2-8.9,19.9,0C1107.9,433.1,1096.1,434.1,1096.1,434.1z"/>
		<path class="st2" d="M1099.9,440.4c0-2.2-1.8-4-4-4s-4,1.8-4,4c0,1.4,0.7,2.5,1.7,3.3c1.6-0.5,3.2-0.6,4.8-0.1
			C1099.2,442.8,1099.9,441.7,1099.9,440.4z"/>
		<path class="st7" d="M1062.9,434.1c0,0-11.8-1-9.9,15.6c6.1-8.3,13.2-8.9,19.9,0C1074.8,433.1,1062.9,434.1,1062.9,434.1z"/>
		<path class="st2" d="M1066.7,440.4c0-2.2-1.8-4-4-4c-2.2,0-4,1.8-4,4c0,1.4,0.7,2.5,1.7,3.3c1.6-0.5,3.2-0.6,4.8-0.1
			C1066.1,442.8,1066.7,441.7,1066.7,440.4z"/>
		<path class="st8" d="M1098.7,451.7h-1.6c0,0,1.9,7.8-4.6,7.8c-6.5,0-13.3,0-13.3,0s-6.7,0-13.3,0s-4.6-7.8-4.6-7.8h-1.6
			c0,0-0.5,1.7,0,12.2c0.5,10.5,19.5,10.5,19.5,10.5s19,0,19.5-10.5C1099.2,453.5,1098.7,451.7,1098.7,451.7z"/>
		<path class="st2" d="M1059.6,461.9c0,0,2.8,6,21.4,4.7c18.6-1.3,18-7.1,18-7.1C1098.2,466.6,1066.2,470.1,1059.6,461.9z"/>
		<path class="st2" d="M1063.9,453.4c0,0-3-3.7-7.7,0.4c0,0,1.9-3.7,4.3-3.2C1062.8,451.1,1063.9,453.4,1063.9,453.4z"/>
		<path class="st2" d="M1101.8,453.5c0,0-3-3.7-7.7,0.4c0,0,1.9-3.7,4.3-3.2C1100.6,451.1,1101.8,453.5,1101.8,453.5z"/>
	</g>
	<g>
		<circle class="st6" cx="1091.8" cy="155.5" r="41.8"/>
		<path class="st7" d="M1107.6,139.6c0,0-11.8-1-9.9,15.6c6.1-8.3,13.2-8.9,19.9,0C1119.5,138.6,1107.6,139.6,1107.6,139.6z"/>
		<path class="st2" d="M1111.4,145.9c0-2.2-1.8-4-4-4c-2.2,0-4,1.8-4,4c0,1.4,0.7,2.5,1.7,3.3c1.6-0.5,3.2-0.6,4.8-0.1
			C1110.8,148.3,1111.4,147.2,1111.4,145.9z"/>
		<path class="st7" d="M1074.4,139.6c0,0-11.8-1-9.9,15.6c6.1-8.3,13.2-8.9,19.9,0C1086.3,138.6,1074.4,139.6,1074.4,139.6z"/>
		<path class="st2" d="M1078.2,145.9c0-2.2-1.8-4-4-4c-2.2,0-4,1.8-4,4c0,1.4,0.7,2.5,1.7,3.3c1.6-0.5,3.2-0.6,4.8-0.1
			C1077.6,148.3,1078.2,147.2,1078.2,145.9z"/>
		<path class="st8" d="M1110.2,157.2h-1.6c0,0,1.9,7.8-4.6,7.8s-13.3,0-13.3,0s-6.7,0-13.3,0s-4.6-7.8-4.6-7.8h-1.6
			c0,0-0.5,1.7,0,12.2c0.5,10.5,19.5,10.5,19.5,10.5s19,0,19.5-10.5C1110.8,159,1110.2,157.2,1110.2,157.2z"/>
		<path class="st2" d="M1071.2,167.4c0,0,2.8,6,21.4,4.7c18.6-1.3,18-7.1,18-7.1C1109.7,172.1,1077.7,175.6,1071.2,167.4z"/>
		<path class="st2" d="M1075.4,158.9c0,0-3-3.7-7.7,0.4c0,0,1.9-3.7,4.3-3.2C1074.3,156.6,1075.4,158.9,1075.4,158.9z"/>
		<path class="st2" d="M1113.3,159c0,0-3-3.7-7.7,0.4c0,0,1.9-3.7,4.3-3.2C1112.2,156.6,1113.3,159,1113.3,159z"/>
	</g>
	<g>
		<circle class="st6" cx="1305.1" cy="426.4" r="59.9"/>
		<path class="st7" d="M1327.8,403.6c0,0-17-1.4-14.3,22.4c8.8-11.9,19-12.8,28.5,0C1344.7,402.2,1327.8,403.6,1327.8,403.6z"/>
		<path class="st2" d="M1333.1,412.7c0-3.2-2.6-5.7-5.7-5.7s-5.7,2.6-5.7,5.7c0,1.9,1,3.6,2.4,4.7c2.2-0.7,4.5-0.8,6.8-0.2
			C1332.2,416.1,1333.1,414.5,1333.1,412.7z"/>
		<path class="st7" d="M1280.2,403.6c0,0-17-1.4-14.3,22.4c8.8-11.9,19-12.8,28.5,0C1297.2,402.2,1280.2,403.6,1280.2,403.6z"/>
		<path class="st2" d="M1285.5,412.7c0-3.2-2.6-5.7-5.7-5.7c-3.2,0-5.7,2.6-5.7,5.7c0,1.9,1,3.6,2.4,4.7c2.2-0.7,4.5-0.8,6.8-0.2
			C1284.7,416.1,1285.5,414.5,1285.5,412.7z"/>
		<path class="st9" d="M1331.5,428.9h-2.3c0,0,2.8,11.1-6.6,11.1s-19,0-19,0s-9.7,0-19,0s-6.6-11.1-6.6-11.1h-2.3
			c0,0-0.7,2.5,0,17.6c0.7,15.1,28,15.1,28,15.1s27.2,0,28-15.1C1332.3,431.4,1331.5,428.9,1331.5,428.9z"/>
		<path class="st2" d="M1275.5,443.5c0,0,4,8.6,30.6,6.7c26.6-1.9,25.8-10.2,25.8-10.2C1330.7,450.2,1284.8,455.2,1275.5,443.5z"/>
		<path class="st2" d="M1281.6,431.3c0,0-4.3-5.3-11,0.6c0,0,2.8-5.3,6.1-4.6S1281.6,431.3,1281.6,431.3z"/>
		<path class="st2" d="M1335.9,431.4c0,0-4.3-5.3-11,0.6c0,0,2.8-5.3,6.1-4.6C1334.3,428,1335.9,431.4,1335.9,431.4z"/>
	</g>
	<g>
		<circle class="st6" cx="1285.5" cy="14.8" r="59.9"/>
		<path class="st7" d="M1308.2-8c0,0-17-1.4-14.3,22.4c8.8-11.9,19-12.8,28.5,0C1325.2-9.4,1308.2-8,1308.2-8z"/>
		<path class="st2" d="M1313.6,1.1c0-3.2-2.6-5.7-5.7-5.7c-3.2,0-5.7,2.6-5.7,5.7c0,1.9,1,3.6,2.4,4.7c2.2-0.7,4.5-0.8,6.8-0.2
			C1312.7,4.6,1313.6,3,1313.6,1.1z"/>
		<path class="st7" d="M1260.6-8c0,0-17-1.4-14.3,22.4c8.8-11.9,19-12.8,28.5,0C1277.6-9.4,1260.6-8,1260.6-8z"/>
		<path class="st2" d="M1266,1.1c0-3.2-2.6-5.7-5.7-5.7c-3.2,0-5.7,2.6-5.7,5.7c0,1.9,1,3.6,2.4,4.7c2.2-0.7,4.5-0.8,6.8-0.2
			C1265.1,4.6,1266,3,1266,1.1z"/>
		<path class="st9" d="M1311.9,17.3h-2.3c0,0,2.8,11.1-6.6,11.1c-9.4,0-19,0-19,0s-9.7,0-19,0s-6.6-11.1-6.6-11.1h-2.3
			c0,0-0.7,2.5,0,17.6c0.7,15.1,28,15.1,28,15.1s27.2,0,28-15.1C1312.7,19.8,1311.9,17.3,1311.9,17.3z"/>
		<path class="st2" d="M1255.9,32c0,0,4,8.6,30.6,6.7c26.6-1.9,25.8-10.2,25.8-10.2C1311.1,38.6,1265.2,43.7,1255.9,32z"/>
		<path class="st2" d="M1262,19.8c0,0-4.3-5.3-11,0.6c0,0,2.8-5.3,6.1-4.6C1260.4,16.4,1262,19.8,1262,19.8z"/>
		<path class="st2" d="M1316.3,19.8c0,0-4.3-5.3-11,0.6c0,0,2.8-5.3,6.1-4.6C1314.7,16.4,1316.3,19.8,1316.3,19.8z"/>
	</g>
	<g>
		<circle class="st6" cx="998.8" cy="61.8" r="59.9"/>
		<path class="st7" d="M1021.4,39c0,0-17-1.4-14.3,22.4c8.8-11.9,19-12.8,28.5,0C1038.4,37.6,1021.4,39,1021.4,39z"/>
		<path class="st2" d="M1026.8,48.1c0-3.2-2.6-5.7-5.7-5.7c-3.2,0-5.7,2.6-5.7,5.7c0,1.9,1,3.6,2.4,4.7c2.2-0.7,4.5-0.8,6.8-0.2
			C1025.9,51.6,1026.8,49.9,1026.8,48.1z"/>
		<path class="st7" d="M973.8,39c0,0-17-1.4-14.3,22.4c8.8-11.9,19-12.8,28.5,0C990.8,37.6,973.8,39,973.8,39z"/>
		<path class="st2" d="M979.2,48.1c0-3.2-2.6-5.7-5.7-5.7s-5.7,2.6-5.7,5.7c0,1.9,1,3.6,2.4,4.7c2.2-0.7,4.5-0.8,6.8-0.2
			C978.3,51.6,979.2,49.9,979.2,48.1z"/>
		<path class="st9" d="M1025.2,64.3h-2.3c0,0,2.8,11.1-6.6,11.1s-19,0-19,0s-9.7,0-19,0s-6.6-11.1-6.6-11.1h-2.3c0,0-0.7,2.5,0,17.6
			s28,15.1,28,15.1s27.2,0,28-15.1C1025.9,66.8,1025.2,64.3,1025.2,64.3z"/>
		<path class="st2" d="M969.1,79c0,0,4,8.6,30.6,6.7c26.6-1.9,25.8-10.2,25.8-10.2C1024.4,85.6,978.5,90.7,969.1,79z"/>
		<path class="st2" d="M975.2,66.8c0,0-4.3-5.3-11,0.6c0,0,2.8-5.3,6.1-4.6C973.6,63.4,975.2,66.8,975.2,66.8z"/>
		<path class="st2" d="M1029.5,66.8c0,0-4.3-5.3-11,0.6c0,0,2.8-5.3,6.1-4.6C1027.9,63.4,1029.5,66.8,1029.5,66.8z"/>
	</g>
	<g>
		<circle class="st6" cx="883.5" cy="445.3" r="59.9"/>
		<path class="st7" d="M906.2,422.5c0,0-17-1.4-14.3,22.4c8.8-11.9,19-12.8,28.5,0C923.1,421,906.2,422.5,906.2,422.5z"/>
		<path class="st2" d="M911.5,431.5c0-3.2-2.6-5.7-5.7-5.7s-5.7,2.6-5.7,5.7c0,1.9,1,3.6,2.4,4.7c2.2-0.7,4.5-0.8,6.8-0.2
			C910.6,435,911.5,433.4,911.5,431.5z"/>
		<path class="st7" d="M858.6,422.5c0,0-17-1.4-14.3,22.4c8.8-11.9,19-12.8,28.5,0C875.5,421,858.6,422.5,858.6,422.5z"/>
		<path class="st2" d="M863.9,431.5c0-3.2-2.6-5.7-5.7-5.7s-5.7,2.6-5.7,5.7c0,1.9,1,3.6,2.4,4.7c2.2-0.7,4.5-0.8,6.8-0.2
			C863,435,863.9,433.4,863.9,431.5z"/>
		<path class="st9" d="M909.9,447.7h-2.3c0,0,2.8,11.1-6.6,11.1s-19,0-19,0s-9.7,0-19,0s-6.6-11.1-6.6-11.1H854c0,0-0.7,2.5,0,17.6
			c0.7,15.1,28,15.1,28,15.1s27.2,0,28-15.1C910.6,450.2,909.9,447.7,909.9,447.7z"/>
		<path class="st2" d="M853.8,462.4c0,0,4,8.6,30.6,6.7s25.8-10.2,25.8-10.2C909.1,469.1,863.2,474.1,853.8,462.4z"/>
		<path class="st2" d="M860,450.2c0,0-4.3-5.3-11,0.6c0,0,2.8-5.3,6.1-4.6S860,450.2,860,450.2z"/>
		<path class="st2" d="M914.3,450.2c0,0-4.3-5.3-11,0.6c0,0,2.8-5.3,6.1-4.6C912.6,446.9,914.3,450.2,914.3,450.2z"/>
	</g>
	<g>
		<circle class="st6" cx="1539.9" cy="729.3" r="59.9"/>
		<path class="st7" d="M1562.5,706.5c0,0-17-1.4-14.3,22.4c8.8-11.9,19-12.8,28.5,0C1579.5,705.1,1562.5,706.5,1562.5,706.5z"/>
		<path class="st2" d="M1567.9,715.6c0-3.2-2.6-5.7-5.7-5.7c-3.2,0-5.7,2.6-5.7,5.7c0,1.9,1,3.6,2.4,4.7c2.2-0.7,4.5-0.8,6.8-0.2
			C1567,719.1,1567.9,717.4,1567.9,715.6z"/>
		<path class="st7" d="M1515,706.5c0,0-17-1.4-14.3,22.4c8.8-11.9,19-12.8,28.5,0C1531.9,705.1,1515,706.5,1515,706.5z"/>
		<path class="st2" d="M1520.3,715.6c0-3.2-2.6-5.7-5.7-5.7c-3.2,0-5.7,2.6-5.7,5.7c0,1.9,1,3.6,2.4,4.7c2.2-0.7,4.5-0.8,6.8-0.2
			C1519.4,719.1,1520.3,717.4,1520.3,715.6z"/>
		<path class="st9" d="M1566.3,731.8h-2.3c0,0,2.8,11.1-6.6,11.1s-19,0-19,0s-9.7,0-19,0s-6.6-11.1-6.6-11.1h-2.3
			c0,0-0.7,2.5,0,17.6c0.7,15.1,28,15.1,28,15.1s27.2,0,28-15.1C1567,734.3,1566.3,731.8,1566.3,731.8z"/>
		<path class="st2" d="M1510.2,746.4c0,0,4,8.6,30.6,6.7c26.6-1.9,25.8-10.2,25.8-10.2C1565.5,753.1,1519.6,758.2,1510.2,746.4z"/>
		<path class="st2" d="M1516.4,734.2c0,0-4.3-5.3-11,0.6c0,0,2.8-5.3,6.1-4.6C1514.8,730.9,1516.4,734.2,1516.4,734.2z"/>
		<path class="st2" d="M1570.6,734.3c0,0-4.3-5.3-11,0.6c0,0,2.8-5.3,6.1-4.6C1569,730.9,1570.6,734.3,1570.6,734.3z"/>
	</g>
	<g>
		<circle class="st6" cx="749.1" cy="44.5" r="59.9"/>
		<path class="st7" d="M771.8,21.7c0,0-17-1.4-14.3,22.4c8.8-11.9,19-12.8,28.5,0C788.8,20.3,771.8,21.7,771.8,21.7z"/>
		<path class="st2" d="M777.1,30.8c0-3.2-2.6-5.7-5.7-5.7s-5.7,2.6-5.7,5.7c0,1.9,1,3.6,2.4,4.7c2.2-0.7,4.5-0.8,6.8-0.2
			C776.3,34.2,777.1,32.6,777.1,30.8z"/>
		<path class="st7" d="M724.2,21.7c0,0-17-1.4-14.3,22.4c8.8-11.9,19-12.8,28.5,0C741.2,20.3,724.2,21.7,724.2,21.7z"/>
		<path class="st2" d="M729.6,30.8c0-3.2-2.6-5.7-5.7-5.7s-5.7,2.6-5.7,5.7c0,1.9,1,3.6,2.4,4.7c2.2-0.7,4.5-0.8,6.8-0.2
			C728.7,34.2,729.6,32.6,729.6,30.8z"/>
		<path class="st9" d="M775.5,47h-2.3c0,0,2.8,11.1-6.6,11.1c-9.4,0-19,0-19,0s-9.7,0-19,0c-9.4,0-6.6-11.1-6.6-11.1h-2.3
			c0,0-0.7,2.5,0,17.6c0.7,15.1,28,15.1,28,15.1s27.2,0,28-15.1S775.5,47,775.5,47z"/>
		<path class="st2" d="M719.5,61.6c0,0,4,8.6,30.6,6.7s25.8-10.2,25.8-10.2C774.7,68.3,728.8,73.3,719.5,61.6z"/>
		<path class="st2" d="M725.6,49.4c0,0-4.3-5.3-11,0.6c0,0,2.8-5.3,6.1-4.6C724,46.1,725.6,49.4,725.6,49.4z"/>
		<path class="st2" d="M779.9,49.5c0,0-4.3-5.3-11,0.6c0,0,2.8-5.3,6.1-4.6S779.9,49.5,779.9,49.5z"/>
	</g>
	<g>
		<path class="st10" d="M1470.4,402.6h13.1c8.2,0,15.7,4.6,19.4,11.9l19.7,38.7c7.4,14.5-3.2,31.7-19.4,31.7h-52.5
			c-16.3,0-26.8-17.2-19.4-31.7l19.7-38.7C1454.7,407.2,1462.2,402.6,1470.4,402.6z"/>
		<ellipse class="st2" cx="1463.3" cy="435.1" rx="6" ry="11.2"/>
		<ellipse class="st2" cx="1491.9" cy="435.1" rx="6" ry="11.2"/>
		<path class="st2" d="M1493.8,455.8c-8.3,6.1-30.8,10.5-36.4,0C1457.3,463.9,1474.1,471,1493.8,455.8z"/>
		<path class="st11" d="M1477,426.1c-3.5-9.8-10.6-15.7-19.6-19.6c0.6-1.5,16.3-10.1,19.6-19.6c4.6,9.4,17.6,16.4,19.6,19.6
			C1487.9,408.7,1481.6,415.8,1477,426.1z"/>
	</g>
	<g>
		<path class="st10" d="M1441.7-20.3h13.1c8.2,0,15.7,4.6,19.4,11.9l19.7,38.7c7.4,14.5-3.2,31.7-19.4,31.7h-52.5
			c-16.3,0-26.8-17.2-19.4-31.7l19.7-38.7C1426-15.7,1433.5-20.3,1441.7-20.3z"/>
		<ellipse class="st2" cx="1434.6" cy="12.2" rx="6" ry="11.2"/>
		<ellipse class="st2" cx="1463.2" cy="12.2" rx="6" ry="11.2"/>
		<path class="st2" d="M1465.1,33c-8.3,6.1-30.8,10.5-36.4,0C1428.6,41,1445.4,48.2,1465.1,33z"/>
		<path class="st11" d="M1448.3,3.3c-3.5-9.8-10.6-15.7-19.6-19.6c0.6-1.5,16.3-10.1,19.6-19.6c4.6,9.4,17.6,16.4,19.6,19.6
			C1459.1-14.1,1452.9-7,1448.3,3.3z"/>
	</g>
	<g>
		<path class="st10" d="M1393.7,184.3h13.1c8.2,0,15.7,4.6,19.4,11.9l19.7,38.7c7.4,14.5-3.2,31.7-19.4,31.7H1374
			c-16.3,0-26.8-17.2-19.4-31.7l19.7-38.7C1378,188.9,1385.5,184.3,1393.7,184.3z"/>
		<ellipse class="st2" cx="1386.6" cy="216.8" rx="6" ry="11.2"/>
		<ellipse class="st2" cx="1415.2" cy="216.8" rx="6" ry="11.2"/>
		<path class="st2" d="M1417,237.6c-8.3,6.1-30.8,10.5-36.4,0C1380.6,245.6,1397.3,252.8,1417,237.6z"/>
		<path class="st11" d="M1400.2,207.9c-3.5-9.8-10.6-15.7-19.6-19.6c0.6-1.5,16.3-10.1,19.6-19.6c4.6,9.4,17.6,16.4,19.6,19.6
			C1411.1,190.5,1404.9,197.6,1400.2,207.9z"/>
	</g>
	<g>
		<path class="st10" d="M1137.9,205.6h13.1c8.2,0,15.7,4.6,19.4,11.9l19.7,38.7c7.4,14.5-3.2,31.7-19.4,31.7h-52.5
			c-16.3,0-26.8-17.2-19.4-31.7l19.7-38.7C1122.2,210.2,1129.7,205.6,1137.9,205.6z"/>
		<ellipse class="st2" cx="1130.8" cy="238.1" rx="6" ry="11.2"/>
		<ellipse class="st2" cx="1159.4" cy="238.1" rx="6" ry="11.2"/>
		<path class="st2" d="M1161.3,258.8c-8.3,6.1-30.8,10.5-36.4,0C1124.8,266.9,1141.6,274,1161.3,258.8z"/>
		<path class="st11" d="M1144.5,229.1c-3.5-9.8-10.6-15.7-19.6-19.6c0.6-1.5,16.3-10.1,19.6-19.6c4.6,9.4,17.6,16.4,19.6,19.6
			C1155.3,211.7,1149.1,218.8,1144.5,229.1z"/>
	</g>
	<g>
		<path class="st10" d="M1089.5-26.6h13.1c8.2,0,15.7,4.6,19.4,11.9l19.7,38.7c7.4,14.5-3.2,31.7-19.4,31.7h-52.5
			c-16.3,0-26.8-17.2-19.4-31.7l19.7-38.7C1073.8-22,1081.3-26.6,1089.5-26.6z"/>
		<ellipse class="st2" cx="1082.4" cy="5.9" rx="6" ry="11.2"/>
		<ellipse class="st2" cx="1111" cy="5.9" rx="6" ry="11.2"/>
		<path class="st2" d="M1112.9,26.6c-8.3,6.1-30.8,10.5-36.4,0C1076.4,34.7,1093.2,41.8,1112.9,26.6z"/>
		<path class="st11" d="M1096.1-3.1c-3.5-9.8-10.6-15.7-19.6-19.6c0.6-1.5,16.3-10.1,19.6-19.6c4.6,9.4,17.6,16.4,19.6,19.6
			C1107-20.5,1100.7-13.4,1096.1-3.1z"/>
	</g>
	<g>
		<path class="st10" d="M930.8,146.7h13.1c8.2,0,15.7,4.6,19.4,11.9l19.7,38.7c7.4,14.5-3.2,31.7-19.4,31.7h-52.5
			c-16.3,0-26.8-17.2-19.4-31.7l19.7-38.7C915,151.3,922.5,146.7,930.8,146.7z"/>
		<ellipse class="st2" cx="923.7" cy="179.2" rx="6" ry="11.2"/>
		<ellipse class="st2" cx="952.2" cy="179.2" rx="6" ry="11.2"/>
		<path class="st2" d="M954.1,199.9c-8.3,6.1-30.8,10.5-36.4,0C917.7,208,934.4,215.1,954.1,199.9z"/>
		<path class="st11" d="M937.3,170.2c-3.5-9.8-10.6-15.7-19.6-19.6c0.6-1.5,16.3-10.1,19.6-19.6c4.6,9.4,17.6,16.4,19.6,19.6
			C948.2,152.8,941.9,159.9,937.3,170.2z"/>
	</g>
	<g>
		<path class="st10" d="M1419.4,600.3h13.1c8.2,0,15.7,4.6,19.4,11.9l19.7,38.7c7.4,14.5-3.2,31.7-19.4,31.7h-52.5
			c-16.3,0-26.8-17.2-19.4-31.7l19.7-38.7C1403.7,605,1411.2,600.3,1419.4,600.3z"/>
		<ellipse class="st2" cx="1412.3" cy="632.9" rx="6" ry="11.2"/>
		<ellipse class="st2" cx="1440.9" cy="632.9" rx="6" ry="11.2"/>
		<path class="st2" d="M1442.8,653.6c-8.3,6.1-30.8,10.5-36.4,0C1406.3,661.7,1423.1,668.8,1442.8,653.6z"/>
		<path class="st11" d="M1426,623.9c-3.5-9.8-10.6-15.7-19.6-19.6c0.6-1.5,16.3-10.1,19.6-19.6c4.6,9.4,17.6,16.4,19.6,19.6
			C1436.9,606.5,1430.6,613.6,1426,623.9z"/>
	</g>
	<g>
		<path class="st10" d="M1564.1,176.2h13.1c8.2,0,15.7,4.6,19.4,11.9l19.7,38.7c7.4,14.5-3.2,31.7-19.4,31.7h-52.5
			c-16.3,0-26.8-17.2-19.4-31.7l19.7-38.7C1548.4,180.8,1555.9,176.2,1564.1,176.2z"/>
		<ellipse class="st2" cx="1557" cy="208.7" rx="6" ry="11.2"/>
		<ellipse class="st2" cx="1585.6" cy="208.7" rx="6" ry="11.2"/>
		<path class="st2" d="M1587.5,229.4c-8.3,6.1-30.8,10.5-36.4,0C1551,237.5,1567.7,244.6,1587.5,229.4z"/>
		<path class="st11" d="M1570.6,199.7c-3.5-9.8-10.6-15.7-19.6-19.6c0.6-1.5,16.3-10.1,19.6-19.6c4.6,9.4,17.6,16.4,19.6,19.6
			C1581.5,182.3,1575.3,189.4,1570.6,199.7z"/>
	</g>
	<g>
		<circle class="st12" cx="1041.1" cy="492.8" r="33.5"/>
		<g>
			<path class="st13" d="M1055.7,488.5h-7.2c0.2,12.1,14.6,12.1,14.4,0H1055.7z"/>
			<path class="st2" d="M1048.4,488.5c0,0-1.6,10.3,4.5,11.8C1052.9,500.2,1049,495.9,1048.4,488.5z"/>
			<path class="st2" d="M1052.8,488.5c-0.3,0.5-0.5,1.1-0.5,1.7c0,1.8,1.4,3.2,3.2,3.2c1.8,0,3.2-1.4,3.2-3.2c0-0.6-0.2-1.2-0.5-1.7
				h-2.4H1052.8z"/>
		</g>
		<g>
			<path class="st13" d="M1026.6,488.5h7.2c-0.2,12.1-14.6,12.1-14.4,0H1026.6z"/>
			<path class="st2" d="M1033.8,488.5c0,0,1.6,10.3-4.5,11.8C1029.3,500.2,1033.3,495.9,1033.8,488.5z"/>
			<path class="st2" d="M1029.5,488.5c0.3,0.5,0.5,1.1,0.5,1.7c0,1.8-1.4,3.2-3.2,3.2c-1.8,0-3.2-1.4-3.2-3.2c0-0.6,0.2-1.2,0.5-1.7
				h2.4H1029.5z"/>
		</g>
		<path class="st2" d="M1031.4,507.2c0,0,10.5-9.2,17.8-2.4c1.4,2.6-6.1,3.4-9.2,1.4C1037.9,504.7,1031.4,507.2,1031.4,507.2z"/>
		<path class="st14" d="M1053.9,475.6c2.9,0,5,0.8,5.7,3.3"/>
		<path class="st14" d="M1056.7,469c0,2.9-0.8,5-3.2,5.7"/>
		<path class="st14" d="M1063.3,472.2c-2.9,0-5-0.8-5.7-3.2"/>
		<path class="st14" d="M1060,478.7c0.2-2.9,1.1-4.9,3.7-5.4"/>
	</g>
	<g>
		<circle class="st12" cx="1480" cy="149.2" r="33.5"/>
		<g>
			<path class="st13" d="M1494.5,144.8h-7.2c0.2,12.1,14.6,12.1,14.4,0H1494.5z"/>
			<path class="st2" d="M1487.3,144.8c0,0-1.6,10.3,4.5,11.8C1491.8,156.6,1487.9,152.3,1487.3,144.8z"/>
			<path class="st2" d="M1491.6,144.8c-0.3,0.5-0.5,1.1-0.5,1.7c0,1.8,1.4,3.2,3.2,3.2s3.2-1.4,3.2-3.2c0-0.6-0.2-1.2-0.5-1.7h-2.4
				H1491.6z"/>
		</g>
		<g>
			<path class="st13" d="M1465.5,144.8h7.2c-0.2,12.1-14.6,12.1-14.4,0H1465.5z"/>
			<path class="st2" d="M1472.7,144.8c0,0,1.6,10.3-4.5,11.8C1468.2,156.6,1472.1,152.3,1472.7,144.8z"/>
			<path class="st2" d="M1468.4,144.8c0.3,0.5,0.5,1.1,0.5,1.7c0,1.8-1.4,3.2-3.2,3.2c-1.8,0-3.2-1.4-3.2-3.2c0-0.6,0.2-1.2,0.5-1.7
				h2.4H1468.4z"/>
		</g>
		<path class="st2" d="M1470.2,163.5c0,0,10.5-9.2,17.8-2.4c1.4,2.6-6.1,3.4-9.2,1.4C1476.8,161.1,1470.2,163.5,1470.2,163.5z"/>
		<path class="st14" d="M1492.8,132c2.9,0,5,0.8,5.7,3.3"/>
		<path class="st14" d="M1495.6,125.4c0,2.9-0.8,5-3.2,5.7"/>
		<path class="st14" d="M1502.1,128.5c-2.9,0-5-0.8-5.7-3.2"/>
		<path class="st14" d="M1498.9,135.1c0.2-2.9,1.1-4.9,3.7-5.4"/>
	</g>
	<g>
		<circle class="st12" cx="1579.6" cy="10.8" r="33.5"/>
		<g>
			<path class="st13" d="M1594.1,6.4h-7.2c0.2,12.1,14.6,12.1,14.4,0H1594.1z"/>
			<path class="st2" d="M1586.9,6.4c0,0-1.6,10.3,4.5,11.8C1591.4,18.2,1587.5,13.9,1586.9,6.4z"/>
			<path class="st2" d="M1591.2,6.4c-0.3,0.5-0.5,1.1-0.5,1.7c0,1.8,1.4,3.2,3.2,3.2s3.2-1.4,3.2-3.2c0-0.6-0.2-1.2-0.5-1.7h-2.4
				H1591.2z"/>
		</g>
		<g>
			<path class="st13" d="M1565.1,6.4h7.2c-0.2,12.1-14.6,12.1-14.4,0H1565.1z"/>
			<path class="st2" d="M1572.3,6.4c0,0,1.6,10.3-4.5,11.8C1567.8,18.2,1571.7,13.9,1572.3,6.4z"/>
			<path class="st2" d="M1568,6.4c0.3,0.5,0.5,1.1,0.5,1.7c0,1.8-1.4,3.2-3.2,3.2c-1.8,0-3.2-1.4-3.2-3.2c0-0.6,0.2-1.2,0.5-1.7h2.4
				H1568z"/>
		</g>
		<path class="st2" d="M1569.8,25.1c0,0,10.5-9.2,17.8-2.4c1.4,2.6-6.1,3.4-9.2,1.4C1576.3,22.7,1569.8,25.1,1569.8,25.1z"/>
		<path class="st14" d="M1592.4-6.4c2.9,0,5,0.8,5.7,3.3"/>
		<path class="st14" d="M1595.2-13c0,2.9-0.8,5-3.2,5.7"/>
		<path class="st14" d="M1601.7-9.9c-2.9,0-5-0.8-5.7-3.2"/>
		<path class="st14" d="M1598.5-3.4c0.2-2.9,1.1-4.9,3.7-5.4"/>
	</g>
	<g>
		<circle class="st12" cx="1570.6" cy="304.7" r="33.5"/>
		<g>
			<path class="st13" d="M1585.2,300.3h-7.2c0.2,12.1,14.6,12.1,14.4,0H1585.2z"/>
			<path class="st2" d="M1577.9,300.3c0,0-1.6,10.3,4.5,11.8C1582.4,312.1,1578.5,307.8,1577.9,300.3z"/>
			<path class="st2" d="M1582.3,300.3c-0.3,0.5-0.5,1.1-0.5,1.7c0,1.8,1.4,3.2,3.2,3.2s3.2-1.4,3.2-3.2c0-0.6-0.2-1.2-0.5-1.7h-2.4
				H1582.3z"/>
		</g>
		<g>
			<path class="st13" d="M1556.1,300.3h7.2c-0.2,12.1-14.6,12.1-14.4,0H1556.1z"/>
			<path class="st2" d="M1563.3,300.3c0,0,1.6,10.3-4.5,11.8C1558.9,312.1,1562.8,307.8,1563.3,300.3z"/>
			<path class="st2" d="M1559,300.3c0.3,0.5,0.5,1.1,0.5,1.7c0,1.8-1.4,3.2-3.2,3.2c-1.8,0-3.2-1.4-3.2-3.2c0-0.6,0.2-1.2,0.5-1.7
				h2.4H1559z"/>
		</g>
		<path class="st2" d="M1560.9,319c0,0,10.5-9.2,17.8-2.4c1.4,2.6-6.1,3.4-9.2,1.4C1567.4,316.6,1560.9,319,1560.9,319z"/>
		<path class="st14" d="M1583.4,287.5c2.9,0,5,0.8,5.7,3.3"/>
		<path class="st14" d="M1586.2,280.9c0,2.9-0.8,5-3.2,5.7"/>
		<path class="st14" d="M1592.8,284.1c-2.9,0-5-0.8-5.7-3.2"/>
		<path class="st14" d="M1589.5,290.6c0.2-2.9,1.1-4.9,3.7-5.4"/>
	</g>
	<g>
		<circle class="st12" cx="1335.9" cy="338.2" r="33.5"/>
		<g>
			<path class="st13" d="M1350.4,333.8h-7.2c0.2,12.1,14.6,12.1,14.4,0H1350.4z"/>
			<path class="st2" d="M1343.2,333.8c0,0-1.6,10.3,4.5,11.8C1347.6,345.6,1343.7,341.3,1343.2,333.8z"/>
			<path class="st2" d="M1347.5,333.8c-0.3,0.5-0.5,1.1-0.5,1.7c0,1.8,1.4,3.2,3.2,3.2s3.2-1.4,3.2-3.2c0-0.6-0.2-1.2-0.5-1.7h-2.4
				H1347.5z"/>
		</g>
		<g>
			<path class="st13" d="M1321.3,333.8h7.2c-0.2,12.1-14.6,12.1-14.4,0H1321.3z"/>
			<path class="st2" d="M1328.5,333.8c0,0,1.6,10.3-4.5,11.8C1324.1,345.6,1328,341.3,1328.5,333.8z"/>
			<path class="st2" d="M1324.2,333.8c0.3,0.5,0.5,1.1,0.5,1.7c0,1.8-1.4,3.2-3.2,3.2c-1.8,0-3.2-1.4-3.2-3.2c0-0.6,0.2-1.2,0.5-1.7
				h2.4H1324.2z"/>
		</g>
		<path class="st2" d="M1326.1,352.5c0,0,10.5-9.2,17.8-2.4c1.4,2.6-6.1,3.4-9.2,1.4C1332.6,350.1,1326.1,352.5,1326.1,352.5z"/>
		<path class="st14" d="M1348.6,321c2.9,0,5,0.8,5.7,3.3"/>
		<path class="st14" d="M1351.5,314.4c0,2.9-0.8,5-3.2,5.7"/>
		<path class="st14" d="M1358,317.5c-2.9,0-5-0.8-5.7-3.2"/>
		<path class="st14" d="M1354.7,324c0.2-2.9,1.1-4.9,3.7-5.4"/>
	</g>
	<g>
		<circle class="st12" cx="1239.2" cy="190.3" r="33.5"/>
		<g>
			<path class="st13" d="M1253.7,186h-7.2c0.2,12.1,14.6,12.1,14.4,0H1253.7z"/>
			<path class="st2" d="M1246.5,186c0,0-1.6,10.3,4.5,11.8C1251,197.7,1247.1,193.5,1246.5,186z"/>
			<path class="st2" d="M1250.8,186c-0.3,0.5-0.5,1.1-0.5,1.7c0,1.8,1.4,3.2,3.2,3.2s3.2-1.4,3.2-3.2c0-0.6-0.2-1.2-0.5-1.7h-2.4
				H1250.8z"/>
		</g>
		<g>
			<path class="st13" d="M1224.7,186h7.2c-0.2,12.1-14.6,12.1-14.4,0H1224.7z"/>
			<path class="st2" d="M1231.9,186c0,0,1.6,10.3-4.5,11.8C1227.4,197.7,1231.3,193.5,1231.9,186z"/>
			<path class="st2" d="M1227.6,186c0.3,0.5,0.5,1.1,0.5,1.7c0,1.8-1.4,3.2-3.2,3.2c-1.8,0-3.2-1.4-3.2-3.2c0-0.6,0.2-1.2,0.5-1.7
				h2.4H1227.6z"/>
		</g>
		<path class="st2" d="M1229.4,204.7c0,0,10.5-9.2,17.8-2.4c1.4,2.6-6.1,3.4-9.2,1.4C1236,202.3,1229.4,204.7,1229.4,204.7z"/>
		<path class="st14" d="M1252,173.2c2.9,0,5,0.8,5.7,3.3"/>
		<path class="st14" d="M1254.8,166.6c0,2.9-0.8,5-3.2,5.7"/>
		<path class="st14" d="M1261.3,169.7c-2.9,0-5-0.8-5.7-3.2"/>
		<path class="st14" d="M1258.1,176.2c0.2-2.9,1.1-4.9,3.7-5.4"/>
	</g>
	<g>
		<circle class="st12" cx="1153.4" cy="97" r="33.5"/>
		<g>
			<path class="st13" d="M1167.9,92.6h-7.2c0.2,12.1,14.6,12.1,14.4,0H1167.9z"/>
			<path class="st2" d="M1160.7,92.6c0,0-1.6,10.3,4.5,11.8C1165.2,104.4,1161.3,100.1,1160.7,92.6z"/>
			<path class="st2" d="M1165.1,92.6c-0.3,0.5-0.5,1.1-0.5,1.7c0,1.8,1.4,3.2,3.2,3.2s3.2-1.4,3.2-3.2c0-0.6-0.2-1.2-0.5-1.7h-2.4
				H1165.1z"/>
		</g>
		<g>
			<path class="st13" d="M1138.9,92.6h7.2c-0.2,12.1-14.6,12.1-14.4,0H1138.9z"/>
			<path class="st2" d="M1146.1,92.6c0,0,1.6,10.3-4.5,11.8C1141.6,104.4,1145.6,100.1,1146.1,92.6z"/>
			<path class="st2" d="M1141.8,92.6c0.3,0.5,0.5,1.1,0.5,1.7c0,1.8-1.4,3.2-3.2,3.2c-1.8,0-3.2-1.4-3.2-3.2c0-0.6,0.2-1.2,0.5-1.7
				h2.4H1141.8z"/>
		</g>
		<path class="st2" d="M1143.7,111.3c0,0,10.5-9.2,17.8-2.4c1.4,2.6-6.1,3.4-9.2,1.4C1150.2,108.9,1143.7,111.3,1143.7,111.3z"/>
		<path class="st14" d="M1166.2,79.8c2.9,0,5,0.8,5.7,3.3"/>
		<path class="st14" d="M1169,73.2c0,2.9-0.8,5-3.2,5.7"/>
		<path class="st14" d="M1175.5,76.3c-2.9,0-5-0.8-5.7-3.2"/>
		<path class="st14" d="M1172.3,82.8c0.2-2.9,1.1-4.9,3.7-5.4"/>
	</g>
	<g>
		<circle class="st12" cx="1204.5" cy="27.7" r="45.4"/>
		<g>
			<path class="st15" d="M1224.2,21.8h-9.8c0.2,16.4,19.9,16.4,19.6,0H1224.2z"/>
			<path class="st2" d="M1214.4,21.8c0,0-2.2,14,6.1,16C1220.5,37.7,1215.2,31.9,1214.4,21.8z"/>
			<path class="st2" d="M1220.3,21.8c-0.4,0.7-0.7,1.5-0.7,2.4c0,2.4,1.9,4.3,4.3,4.3c2.4,0,4.3-1.9,4.3-4.3c0-0.9-0.3-1.7-0.7-2.4
				h-3.3H1220.3z"/>
		</g>
		<g>
			<path class="st15" d="M1184.8,21.8h9.8c-0.2,16.4-19.9,16.4-19.6,0H1184.8z"/>
			<path class="st2" d="M1194.6,21.8c0,0,2.2,14-6.1,16C1188.5,37.7,1193.8,31.9,1194.6,21.8z"/>
			<path class="st2" d="M1188.7,21.8c0.4,0.7,0.7,1.5,0.7,2.4c0,2.4-1.9,4.3-4.3,4.3c-2.4,0-4.3-1.9-4.3-4.3c0-0.9,0.3-1.7,0.7-2.4
				h3.3H1188.7z"/>
		</g>
		<path class="st2" d="M1191.2,47.1c0,0,14.3-12.6,24.2-3.3c1.9,3.5-8.3,4.6-12.6,1.9C1200.1,43.9,1191.2,47.1,1191.2,47.1z"/>
		<path class="st16" d="M1221.8,4.4c3.9,0,6.8,1.1,7.7,4.4"/>
		<path class="st16" d="M1225.7-4.6c0,3.9-1.1,6.8-4.4,7.7"/>
		<path class="st16" d="M1234.5-0.4c-3.9,0-6.8-1-7.7-4.4"/>
		<path class="st16" d="M1230.1,8.5c0.3-3.9,1.5-6.7,5-7.4"/>
	</g>
	<g>
		<circle class="st12" cx="1091.8" cy="366.5" r="45.4"/>
		<g>
			<path class="st15" d="M1111.5,360.6h-9.8c0.2,16.4,19.9,16.4,19.6,0H1111.5z"/>
			<path class="st2" d="M1101.7,360.6c0,0-2.2,14,6.1,16C1107.8,376.5,1102.5,370.7,1101.7,360.6z"/>
			<path class="st2" d="M1107.6,360.6c-0.4,0.7-0.7,1.5-0.7,2.4c0,2.4,1.9,4.3,4.3,4.3c2.4,0,4.3-1.9,4.3-4.3c0-0.9-0.3-1.7-0.7-2.4
				h-3.3H1107.6z"/>
		</g>
		<g>
			<path class="st15" d="M1072.1,360.6h9.8c-0.2,16.4-19.9,16.4-19.6,0H1072.1z"/>
			<path class="st2" d="M1081.9,360.6c0,0,2.2,14-6.1,16C1075.8,376.5,1081.1,370.7,1081.9,360.6z"/>
			<path class="st2" d="M1076.1,360.6c0.4,0.7,0.7,1.5,0.7,2.4c0,2.4-1.9,4.3-4.3,4.3c-2.4,0-4.3-1.9-4.3-4.3c0-0.9,0.3-1.7,0.7-2.4
				h3.3H1076.1z"/>
		</g>
		<path class="st2" d="M1078.6,386c0,0,14.3-12.6,24.2-3.3c1.9,3.5-8.3,4.6-12.6,1.9C1087.4,382.7,1078.6,386,1078.6,386z"/>
		<path class="st16" d="M1109.2,343.2c3.9,0,6.8,1.1,7.7,4.4"/>
		<path class="st16" d="M1113,334.2c0,3.9-1.1,6.8-4.4,7.7"/>
		<path class="st16" d="M1121.8,338.5c-3.9,0-6.8-1-7.7-4.4"/>
		<path class="st16" d="M1117.5,347.3c0.3-3.9,1.5-6.7,5-7.4"/>
	</g>
	<g>
		<circle class="st12" cx="889.3" cy="44.5" r="45.4"/>
		<g>
			<path class="st15" d="M909,38.6h-9.8c0.2,16.4,19.9,16.4,19.6,0H909z"/>
			<path class="st2" d="M899.2,38.6c0,0-2.2,14,6.1,16C905.3,54.6,899.9,48.7,899.2,38.6z"/>
			<path class="st2" d="M905,38.6c-0.4,0.7-0.7,1.5-0.7,2.4c0,2.4,1.9,4.3,4.3,4.3c2.4,0,4.3-1.9,4.3-4.3c0-0.9-0.3-1.7-0.7-2.4H909
				H905z"/>
		</g>
		<g>
			<path class="st15" d="M869.5,38.6h9.8c-0.2,16.4-19.9,16.4-19.6,0H869.5z"/>
			<path class="st2" d="M879.3,38.6c0,0,2.2,14-6.1,16C873.3,54.6,878.6,48.7,879.3,38.6z"/>
			<path class="st2" d="M873.5,38.6c0.4,0.7,0.7,1.5,0.7,2.4c0,2.4-1.9,4.3-4.3,4.3c-2.4,0-4.3-1.9-4.3-4.3c0-0.9,0.3-1.7,0.7-2.4
				h3.3H873.5z"/>
		</g>
		<path class="st2" d="M876,64c0,0,14.3-12.6,24.2-3.3c1.9,3.5-8.3,4.6-12.6,1.9C884.9,60.7,876,64,876,64z"/>
		<path class="st16" d="M906.6,21.2c3.9,0,6.8,1.1,7.7,4.4"/>
		<path class="st16" d="M910.4,12.2c0,3.9-1.1,6.8-4.4,7.7"/>
		<path class="st16" d="M919.3,16.5c-3.9,0-6.8-1-7.7-4.4"/>
		<path class="st16" d="M914.9,25.3c0.3-3.9,1.5-6.7,5-7.4"/>
	</g>
	<g>
		<circle class="st12" cx="917.7" cy="297" r="45.4"/>
		<g>
			<path class="st15" d="M937.4,291.1h-9.8c0.2,16.4,19.9,16.4,19.6,0H937.4z"/>
			<path class="st2" d="M927.6,291.1c0,0-2.2,14,6.1,16C933.7,307,928.4,301.2,927.6,291.1z"/>
			<path class="st2" d="M933.5,291.1c-0.4,0.7-0.7,1.5-0.7,2.4c0,2.4,1.9,4.3,4.3,4.3c2.4,0,4.3-1.9,4.3-4.3c0-0.9-0.3-1.7-0.7-2.4
				h-3.3H933.5z"/>
		</g>
		<g>
			<path class="st15" d="M898,291.1h9.8c-0.2,16.4-19.9,16.4-19.6,0H898z"/>
			<path class="st2" d="M907.8,291.1c0,0,2.2,14-6.1,16C901.7,307,907,301.2,907.8,291.1z"/>
			<path class="st2" d="M901.9,291.1c0.4,0.7,0.7,1.5,0.7,2.4c0,2.4-1.9,4.3-4.3,4.3c-2.4,0-4.3-1.9-4.3-4.3c0-0.9,0.3-1.7,0.7-2.4
				h3.3H901.9z"/>
		</g>
		<path class="st2" d="M904.5,316.4c0,0,14.3-12.6,24.2-3.3c1.9,3.5-8.3,4.6-12.6,1.9C913.3,313.2,904.5,316.4,904.5,316.4z"/>
		<path class="st16" d="M935,273.7c3.9,0,6.8,1.1,7.7,4.4"/>
		<path class="st16" d="M938.9,264.7c0,3.9-1.1,6.8-4.4,7.7"/>
		<path class="st16" d="M947.7,268.9c-3.9,0-6.8-1-7.7-4.4"/>
		<path class="st16" d="M943.3,277.8c0.3-3.9,1.5-6.7,5-7.4"/>
	</g>
	<g>
		<circle class="st12" cx="1203.5" cy="351.4" r="45.4"/>
		<g>
			<path class="st15" d="M1223.2,345.5h-9.8c0.2,16.4,19.9,16.4,19.6,0H1223.2z"/>
			<path class="st2" d="M1213.4,345.5c0,0-2.2,14,6.1,16C1219.4,361.4,1214.1,355.6,1213.4,345.5z"/>
			<path class="st2" d="M1219.2,345.5c-0.4,0.7-0.7,1.5-0.7,2.4c0,2.4,1.9,4.3,4.3,4.3s4.3-1.9,4.3-4.3c0-0.9-0.3-1.7-0.7-2.4h-3.3
				H1219.2z"/>
		</g>
		<g>
			<path class="st15" d="M1183.7,345.5h9.8c-0.2,16.4-19.9,16.4-19.6,0H1183.7z"/>
			<path class="st2" d="M1193.5,345.5c0,0,2.2,14-6.1,16C1187.4,361.4,1192.8,355.6,1193.5,345.5z"/>
			<path class="st2" d="M1187.7,345.5c0.4,0.7,0.7,1.5,0.7,2.4c0,2.4-1.9,4.3-4.3,4.3s-4.3-1.9-4.3-4.3c0-0.9,0.3-1.7,0.7-2.4h3.3
				H1187.7z"/>
		</g>
		<path class="st2" d="M1190.2,370.8c0,0,14.3-12.6,24.2-3.3c1.9,3.5-8.3,4.6-12.6,1.9C1199,367.6,1190.2,370.8,1190.2,370.8z"/>
		<path class="st16" d="M1220.8,328.1c3.9,0,6.8,1.1,7.7,4.4"/>
		<path class="st16" d="M1224.6,319.1c0,3.9-1.1,6.8-4.4,7.7"/>
		<path class="st16" d="M1233.5,323.3c-3.9,0-6.8-1-7.7-4.4"/>
		<path class="st16" d="M1229.1,332.2c0.3-3.9,1.5-6.7,5-7.4"/>
	</g>
	<g>
		<circle class="st12" cx="1442.8" cy="526.3" r="45.4"/>
		<g>
			<path class="st15" d="M1462.5,520.4h-9.8c0.2,16.4,19.9,16.4,19.6,0H1462.5z"/>
			<path class="st2" d="M1452.7,520.4c0,0-2.2,14,6.1,16C1458.8,536.3,1453.5,530.5,1452.7,520.4z"/>
			<path class="st2" d="M1458.6,520.4c-0.4,0.7-0.7,1.5-0.7,2.4c0,2.4,1.9,4.3,4.3,4.3c2.4,0,4.3-1.9,4.3-4.3c0-0.9-0.3-1.7-0.7-2.4
				h-3.3H1458.6z"/>
		</g>
		<g>
			<path class="st15" d="M1423.1,520.4h9.8c-0.2,16.4-19.9,16.4-19.6,0H1423.1z"/>
			<path class="st2" d="M1432.9,520.4c0,0,2.2,14-6.1,16C1426.8,536.3,1432.1,530.5,1432.9,520.4z"/>
			<path class="st2" d="M1427,520.4c0.4,0.7,0.7,1.5,0.7,2.4c0,2.4-1.9,4.3-4.3,4.3c-2.4,0-4.3-1.9-4.3-4.3c0-0.9,0.3-1.7,0.7-2.4
				h3.3H1427z"/>
		</g>
		<path class="st2" d="M1429.6,545.7c0,0,14.3-12.6,24.2-3.3c1.9,3.5-8.3,4.6-12.6,1.9C1438.4,542.5,1429.6,545.7,1429.6,545.7z"/>
		<path class="st16" d="M1460.1,503c3.9,0,6.8,1.1,7.7,4.4"/>
		<path class="st16" d="M1464,494c0,3.9-1.1,6.8-4.4,7.7"/>
		<path class="st16" d="M1472.8,498.3c-3.9,0-6.8-1-7.7-4.4"/>
		<path class="st16" d="M1468.4,507.1c0.3-3.9,1.5-6.7,5-7.4"/>
	</g>
	<g>
		<path class="st12" d="M1576.9,626.1c0-26.3-21.3-47.7-47.7-47.7c-26.3,0-47.7,21.3-47.7,47.7c0,17.1,9,32.1,22.5,40.5
			c0.5,4.2,4.1,8.7,17.2,8.7c22.8,0,36-0.6,33.2-8.7C1567.9,658.1,1576.9,643.1,1576.9,626.1z"/>
		<path class="st17" d="M1547.5,640.6c0,0-14.5,17.5-1.5,26.3c13,8.8-29.1,4.1-30.4,2.8c-1.3-1.3-12.2-15.1,21.3-33.7
			C1548.5,630.4,1550.5,639.3,1547.5,640.6z"/>
		<path class="st18" d="M1539.7,618.3c-1.4-8.7-5.2-13.5-10.5-15.8"/>
		<path class="st18" d="M1539.7,618.3c-6.7-5.8-8.6-7-14.2-5.4"/>
		<path class="st19" d="M1570.3,621.9c-7.1-4-12-2.7-15.5,1.9"/>
		<path class="st19" d="M1569.5,628.9c-4.7-6.7-9.6-7.7-14.7-5.2"/>
		<path class="st20" d="M1539.7,619.1c0,0-16.9-0.8-26.2,10.5c-0.2,0.2-0.5,0-0.4-0.2c1-3.5,4.3-13.9,9.6-14.5c0,0,1.8,1.6,2.6,0.8
			C1526.1,614.8,1539.7,611.6,1539.7,619.1z"/>
		<path class="st20" d="M1554.3,624.4c0,0,14.1,9.4,14.9,23.9c0,0.3,0.4,0.3,0.5,0.1c1.3-3.4,4.7-13.8,0.9-17.3c0,0-2.4,0.3-2.6-0.9
			C1567.9,628.9,1558.8,618.3,1554.3,624.4z"/>
		<path class="st20" d="M1502.8,635.7c-6.1,2.6-3.1,13.6-8.3,10.5C1486.8,641.5,1502.8,635.7,1502.8,635.7z"/>
		<path class="st20" d="M1569.5,656.5c4.9-1.5,2.4,10,5.9,7.5C1581.1,660,1573.3,654,1569.5,656.5z"/>
	</g>
	<g>
		<path class="st12" d="M1462.6,366.8c0-26.3-21.3-47.7-47.7-47.7c-26.3,0-47.7,21.3-47.7,47.7c0,17.1,9,32.1,22.5,40.5
			c0.5,4.2,4.1,8.7,17.2,8.7c22.8,0,36-0.6,33.2-8.7C1453.6,398.9,1462.6,383.9,1462.6,366.8z"/>
		<path class="st17" d="M1433.2,381.4c0,0-14.5,17.5-1.5,26.3s-29.1,4.1-30.4,2.8c-1.3-1.3-12.2-15.1,21.3-33.7
			C1434.2,371.1,1436.2,380,1433.2,381.4z"/>
		<path class="st18" d="M1425.4,359c-1.4-8.7-5.2-13.5-10.5-15.8"/>
		<path class="st18" d="M1425.4,359c-6.7-5.8-8.6-7-14.2-5.4"/>
		<path class="st19" d="M1456,362.6c-7.1-4-12-2.7-15.5,1.9"/>
		<path class="st19" d="M1455.2,369.6c-4.7-6.7-9.6-7.7-14.7-5.2"/>
		<path class="st20" d="M1425.4,359.9c0,0-16.9-0.8-26.2,10.5c-0.2,0.2-0.5,0-0.4-0.2c1-3.5,4.3-13.9,9.6-14.5c0,0,1.8,1.6,2.6,0.8
			C1411.8,355.6,1425.4,352.4,1425.4,359.9z"/>
		<path class="st20" d="M1440,365.1c0,0,14.1,9.4,14.9,23.9c0,0.3,0.4,0.3,0.5,0.1c1.3-3.4,4.7-13.8,0.9-17.3c0,0-2.4,0.3-2.6-0.9
			C1453.5,369.7,1444.5,359,1440,365.1z"/>
		<path class="st20" d="M1388.5,376.4c-6.1,2.6-3.1,13.6-8.3,10.5C1372.5,382.3,1388.5,376.4,1388.5,376.4z"/>
		<path class="st20" d="M1455.1,397.2c4.9-1.5,2.4,10,5.9,7.5C1466.8,400.7,1458.9,394.8,1455.1,397.2z"/>
	</g>
	<g>
		<path class="st12" d="M1477,93.9c0-26.3-21.3-47.7-47.7-47.7c-26.3,0-47.7,21.3-47.7,47.7c0,17.1,9,32.1,22.5,40.5
			c0.5,4.2,4.1,8.7,17.2,8.7c22.8,0,36-0.6,33.2-8.7C1468,126,1477,111,1477,93.9z"/>
		<path class="st17" d="M1447.6,108.5c0,0-14.5,17.5-1.5,26.3c13,8.8-29.1,4.1-30.4,2.8c-1.3-1.3-12.2-15.1,21.3-33.7
			C1448.6,98.2,1450.6,107.2,1447.6,108.5z"/>
		<path class="st18" d="M1439.8,86.1c-1.4-8.7-5.2-13.5-10.5-15.8"/>
		<path class="st18" d="M1439.8,86.1c-6.7-5.8-8.6-7-14.2-5.4"/>
		<path class="st19" d="M1470.4,89.7c-7.1-4-12-2.7-15.5,1.9"/>
		<path class="st19" d="M1469.6,96.8c-4.7-6.7-9.6-7.7-14.7-5.2"/>
		<path class="st20" d="M1439.8,87c0,0-16.9-0.8-26.2,10.5c-0.2,0.2-0.5,0-0.4-0.2c1-3.5,4.3-13.9,9.6-14.5c0,0,1.8,1.6,2.6,0.8
			C1426.2,82.7,1439.8,79.5,1439.8,87z"/>
		<path class="st20" d="M1454.4,92.2c0,0,14.1,9.4,14.9,23.9c0,0.3,0.4,0.3,0.5,0.1c1.3-3.4,4.7-13.8,0.9-17.3c0,0-2.4,0.3-2.6-0.9
			C1467.9,96.8,1458.9,86.1,1454.4,92.2z"/>
		<path class="st20" d="M1402.9,103.5c-6.1,2.6-3.1,13.6-8.3,10.5C1386.8,109.4,1402.9,103.5,1402.9,103.5z"/>
		<path class="st20" d="M1469.5,124.3c4.9-1.5,2.4,10,5.9,7.5C1481.2,127.9,1473.3,121.9,1469.5,124.3z"/>
	</g>
	<g>
		<path class="st12" d="M1576.9,155.3c0-26.3-21.3-47.7-47.7-47.7c-26.3,0-47.7,21.3-47.7,47.7c0,17.1,9,32.1,22.5,40.5
			c0.5,4.2,4.1,8.7,17.2,8.7c22.8,0,36-0.6,33.2-8.7C1567.9,187.4,1576.9,172.4,1576.9,155.3z"/>
		<path class="st17" d="M1547.5,169.9c0,0-14.5,17.5-1.5,26.3c13,8.8-29.1,4.1-30.4,2.8s-12.2-15.1,21.3-33.7
			C1548.5,159.6,1550.5,168.6,1547.5,169.9z"/>
		<path class="st18" d="M1539.7,147.5c-1.4-8.7-5.2-13.5-10.5-15.8"/>
		<path class="st18" d="M1539.7,147.5c-6.7-5.8-8.6-7-14.2-5.4"/>
		<path class="st19" d="M1570.3,151.2c-7.1-4-12-2.7-15.5,1.9"/>
		<path class="st19" d="M1569.5,158.2c-4.7-6.7-9.6-7.7-14.7-5.2"/>
		<path class="st20" d="M1539.7,148.4c0,0-16.9-0.8-26.2,10.5c-0.2,0.2-0.5,0-0.4-0.2c1-3.5,4.3-13.9,9.6-14.5c0,0,1.8,1.6,2.6,0.8
			C1526.1,144.1,1539.7,140.9,1539.7,148.4z"/>
		<path class="st20" d="M1554.3,153.6c0,0,14.1,9.4,14.9,23.9c0,0.3,0.4,0.3,0.5,0.1c1.3-3.4,4.7-13.8,0.9-17.3c0,0-2.4,0.3-2.6-0.9
			C1567.9,158.2,1558.8,147.6,1554.3,153.6z"/>
		<path class="st20" d="M1502.8,165c-6.1,2.6-3.1,13.6-8.3,10.5C1486.8,170.8,1502.8,165,1502.8,165z"/>
		<path class="st20" d="M1569.5,185.7c4.9-1.5,2.4,10,5.9,7.5C1581.1,189.3,1573.3,183.3,1569.5,185.7z"/>
	</g>
	<g>
		<path class="st12" d="M1204.5,175.3c0-26.3-21.3-47.7-47.7-47.7c-26.3,0-47.7,21.3-47.7,47.7c0,17.1,9,32.1,22.5,40.5
			c0.5,4.2,4.1,8.7,17.2,8.7c22.8,0,36-0.6,33.2-8.7C1195.6,207.3,1204.5,192.3,1204.5,175.3z"/>
		<path class="st17" d="M1175.2,189.8c0,0-14.5,17.5-1.5,26.3s-29.1,4.1-30.4,2.8c-1.3-1.3-12.2-15.1,21.3-33.7
			C1176.2,179.6,1178.1,188.5,1175.2,189.8z"/>
		<path class="st18" d="M1167.3,167.5c-1.4-8.7-5.2-13.5-10.5-15.8"/>
		<path class="st18" d="M1167.3,167.5c-6.7-5.8-8.6-7-14.2-5.4"/>
		<path class="st19" d="M1197.9,171.1c-7.1-4-12-2.7-15.5,1.9"/>
		<path class="st19" d="M1197.2,178.1c-4.7-6.7-9.6-7.7-14.7-5.2"/>
		<path class="st20" d="M1167.3,168.4c0,0-16.9-0.8-26.2,10.5c-0.2,0.2-0.5,0-0.4-0.2c1-3.5,4.3-13.9,9.6-14.5c0,0,1.8,1.6,2.6,0.8
			S1167.3,160.8,1167.3,168.4z"/>
		<path class="st20" d="M1182,173.6c0,0,14.1,9.4,14.9,23.9c0,0.3,0.4,0.3,0.5,0.1c1.3-3.4,4.7-13.8,0.9-17.3c0,0-2.4,0.3-2.6-0.9
			C1195.5,178.1,1186.4,167.5,1182,173.6z"/>
		<path class="st20" d="M1130.4,184.9c-6.1,2.6-3.1,13.6-8.3,10.5C1114.4,190.7,1130.4,184.9,1130.4,184.9z"/>
		<path class="st20" d="M1197.1,205.7c4.9-1.5,2.4,10,5.9,7.5C1208.8,209.2,1200.9,203.2,1197.1,205.7z"/>
	</g>
	<g>
		<path class="st12" d="M867.5,252.3c0-26.3-21.3-47.7-47.7-47.7c-26.3,0-47.7,21.3-47.7,47.7c0,17.1,9,32.1,22.5,40.5
			c0.5,4.2,4.1,8.7,17.2,8.7c22.8,0,36-0.6,33.2-8.7C858.5,284.3,867.5,269.4,867.5,252.3z"/>
		<path class="st17" d="M838.1,266.8c0,0-14.5,17.5-1.5,26.3s-29.1,4.1-30.4,2.8c-1.3-1.3-12.2-15.1,21.3-33.7
			C839.1,256.6,841.1,265.5,838.1,266.8z"/>
		<path class="st18" d="M830.3,244.5c-1.4-8.7-5.2-13.5-10.5-15.8"/>
		<path class="st18" d="M830.3,244.5c-6.7-5.8-8.6-7-14.2-5.4"/>
		<path class="st19" d="M860.9,248.1c-7.1-4-12-2.7-15.5,1.9"/>
		<path class="st19" d="M860.1,255.1c-4.7-6.7-9.6-7.7-14.7-5.2"/>
		<path class="st20" d="M830.3,245.4c0,0-16.9-0.8-26.2,10.5c-0.2,0.2-0.5,0-0.4-0.2c1-3.5,4.3-13.9,9.6-14.5c0,0,1.8,1.6,2.6,0.8
			C816.7,241.1,830.3,237.8,830.3,245.4z"/>
		<path class="st20" d="M844.9,250.6c0,0,14.1,9.4,14.9,23.9c0,0.3,0.4,0.3,0.5,0.1c1.3-3.4,4.7-13.8,0.9-17.3c0,0-2.4,0.3-2.6-0.9
			C858.4,255.2,849.4,244.5,844.9,250.6z"/>
		<path class="st20" d="M793.4,261.9c-6.1,2.6-3.1,13.6-8.3,10.5C777.4,267.8,793.4,261.9,793.4,261.9z"/>
		<path class="st20" d="M860.1,282.7c4.9-1.5,2.4,10,5.9,7.5C871.7,286.2,863.8,280.2,860.1,282.7z"/>
	</g>
	<g>
		<path class="st12" d="M1150.4,630.1c0-26.3-21.3-47.7-47.7-47.7c-26.3,0-47.7,21.3-47.7,47.7c0,17.1,9,32.1,22.5,40.5
			c0.5,4.2,4.1,8.7,17.2,8.7c22.8,0,36-0.6,33.2-8.7C1141.4,662.2,1150.4,647.2,1150.4,630.1z"/>
		<path class="st17" d="M1121,644.7c0,0-14.5,17.5-1.5,26.3c13,8.8-29.1,4.1-30.4,2.8c-1.3-1.3-12.2-15.1,21.3-33.7
			C1122,634.4,1124,643.4,1121,644.7z"/>
		<path class="st18" d="M1113.2,622.3c-1.4-8.7-5.2-13.5-10.5-15.8"/>
		<path class="st18" d="M1113.2,622.3c-6.7-5.8-8.6-7-14.2-5.4"/>
		<path class="st19" d="M1143.8,625.9c-7.1-4-12-2.7-15.5,1.9"/>
		<path class="st19" d="M1143,632.9c-4.7-6.7-9.6-7.7-14.7-5.2"/>
		<path class="st20" d="M1113.2,623.2c0,0-16.9-0.8-26.2,10.5c-0.2,0.2-0.5,0-0.4-0.2c1-3.5,4.3-13.9,9.6-14.5c0,0,1.8,1.6,2.6,0.8
			S1113.2,615.7,1113.2,623.2z"/>
		<path class="st20" d="M1127.9,628.4c0,0,14.1,9.4,14.9,23.9c0,0.3,0.4,0.3,0.5,0.1c1.3-3.4,4.7-13.8,0.9-17.3c0,0-2.4,0.3-2.6-0.9
			C1141.4,633,1132.3,622.3,1127.9,628.4z"/>
		<path class="st20" d="M1076.3,639.7c-6.1,2.6-3.1,13.6-8.3,10.5C1060.3,645.6,1076.3,639.7,1076.3,639.7z"/>
		<path class="st20" d="M1143,660.5c4.9-1.5,2.4,10,5.9,7.5C1154.7,664.1,1146.8,658.1,1143,660.5z"/>
	</g>
	<g>
		<path class="st12" d="M528.5,226.1c0-26.3-21.3-47.7-47.7-47.7s-47.7,21.3-47.7,47.7c0,17.1,9,32.1,22.5,40.5
			c0.5,4.2,4.1,8.7,17.2,8.7c22.8,0,36-0.6,33.2-8.7C519.5,258.2,528.5,243.2,528.5,226.1z"/>
		<path class="st17" d="M499.1,240.7c0,0-14.5,17.5-1.5,26.3c13,8.8-29.1,4.1-30.4,2.8c-1.3-1.3-12.2-15.1,21.3-33.7
			C500.1,230.4,502.1,239.4,499.1,240.7z"/>
		<path class="st18" d="M491.3,218.3c-1.4-8.7-5.2-13.5-10.5-15.8"/>
		<path class="st18" d="M491.3,218.3c-6.7-5.8-8.6-7-14.2-5.4"/>
		<path class="st19" d="M521.9,221.9c-7.1-4-12-2.7-15.5,1.9"/>
		<path class="st19" d="M521.1,228.9c-4.7-6.7-9.6-7.7-14.7-5.2"/>
		<path class="st20" d="M491.3,219.2c0,0-16.9-0.8-26.2,10.5c-0.2,0.2-0.5,0-0.4-0.2c1-3.5,4.3-13.9,9.6-14.5c0,0,1.8,1.6,2.6,0.8
			S491.3,211.7,491.3,219.2z"/>
		<path class="st20" d="M505.9,224.4c0,0,14.1,9.4,14.9,23.9c0,0.3,0.4,0.3,0.5,0.1c1.3-3.4,4.7-13.8,0.9-17.3c0,0-2.4,0.3-2.6-0.9
			S510.4,218.3,505.9,224.4z"/>
		<path class="st20" d="M454.4,235.7c-6.1,2.6-3.1,13.6-8.3,10.5C438.4,241.6,454.4,235.7,454.4,235.7z"/>
		<path class="st20" d="M521.1,256.5c4.9-1.5,2.4,10,5.9,7.5C532.7,260.1,524.8,254.1,521.1,256.5z"/>
	</g>
	<g>
		<path class="st12" d="M630.6,37.5c0-26.3-21.3-47.7-47.7-47.7c-26.3,0-47.7,21.3-47.7,47.7c0,17.1,9,32.1,22.5,40.5
			c0.5,4.2,4.1,8.7,17.2,8.7c22.8,0,36-0.6,33.2-8.7C621.6,69.6,630.6,54.6,630.6,37.5z"/>
		<path class="st17" d="M601.2,52.1c0,0-14.5,17.5-1.5,26.3s-29.1,4.1-30.4,2.8c-1.3-1.3-12.2-15.1,21.3-33.7
			C602.2,41.8,604.2,50.8,601.2,52.1z"/>
		<path class="st18" d="M593.3,29.7c-1.4-8.7-5.2-13.5-10.5-15.8"/>
		<path class="st18" d="M593.3,29.7c-6.7-5.8-8.6-7-14.2-5.4"/>
		<path class="st19" d="M624,33.3c-7.1-4-12-2.7-15.5,1.9"/>
		<path class="st19" d="M623.2,40.4c-4.7-6.7-9.6-7.7-14.7-5.2"/>
		<path class="st20" d="M593.3,30.6c0,0-16.9-0.8-26.2,10.5c-0.2,0.2-0.5,0-0.4-0.2c1-3.5,4.3-13.9,9.6-14.5c0,0,1.8,1.6,2.6,0.8
			C579.7,26.3,593.3,23.1,593.3,30.6z"/>
		<path class="st20" d="M608,35.8c0,0,14.1,9.4,14.9,23.9c0,0.3,0.4,0.3,0.5,0.1c1.3-3.4,4.7-13.8,0.9-17.3c0,0-2.4,0.3-2.6-0.9
			C621.5,40.4,612.4,29.7,608,35.8z"/>
		<path class="st20" d="M556.5,47.1c-6.1,2.6-3.1,13.6-8.3,10.5C540.4,53,556.5,47.1,556.5,47.1z"/>
		<path class="st20" d="M623.1,67.9c4.9-1.5,2.4,10,5.9,7.5C634.8,71.5,626.9,65.5,623.1,67.9z"/>
	</g>
	<g>
		<path class="st12" d="M1074.3,304.5c0-26.3-21.3-47.7-47.7-47.7c-26.3,0-47.7,21.3-47.7,47.7c0,17.1,9,32.1,22.5,40.5
			c0.5,4.2,4.1,8.7,17.2,8.7c22.8,0,36-0.6,33.2-8.7C1065.3,336.5,1074.3,321.6,1074.3,304.5z"/>
		<path class="st17" d="M1044.9,319c0,0-14.5,17.5-1.5,26.3c13,8.8-29.1,4.1-30.4,2.8c-1.3-1.3-12.2-15.1,21.3-33.7
			C1045.9,308.8,1047.9,317.7,1044.9,319z"/>
		<path class="st18" d="M1037.1,296.7c-1.4-8.7-5.2-13.5-10.5-15.8"/>
		<path class="st18" d="M1037.1,296.7c-6.7-5.8-8.6-7-14.2-5.4"/>
		<path class="st19" d="M1067.7,300.3c-7.1-4-12-2.7-15.5,1.9"/>
		<path class="st19" d="M1066.9,307.3c-4.7-6.7-9.6-7.7-14.7-5.2"/>
		<path class="st20" d="M1037.1,297.6c0,0-16.9-0.8-26.2,10.5c-0.2,0.2-0.5,0-0.4-0.2c1-3.5,4.3-13.9,9.6-14.5c0,0,1.8,1.6,2.6,0.8
			C1023.5,293.3,1037.1,290,1037.1,297.6z"/>
		<path class="st20" d="M1051.7,302.8c0,0,14.1,9.4,14.9,23.9c0,0.3,0.4,0.3,0.5,0.1c1.3-3.4,4.7-13.8,0.9-17.3c0,0-2.4,0.3-2.6-0.9
			C1065.2,307.4,1056.2,296.7,1051.7,302.8z"/>
		<path class="st20" d="M1000.2,314.1c-6.1,2.6-3.1,13.6-8.3,10.5C984.1,320,1000.2,314.1,1000.2,314.1z"/>
		<path class="st20" d="M1066.8,334.9c4.9-1.5,2.4,10,5.9,7.5C1078.5,338.4,1070.6,332.5,1066.8,334.9z"/>
	</g>
	<g>
		<path class="st21" d="M1360.5,512.2h-116.6c0,0-46.8,31.7-26.6,44.3c8.2,5.1,13,3.1,15.9-1.1l-7.4,30.1
			c-2.7,10.8,5.5,21.2,16.6,21.2h119.1c11,0,19.2-10.3,16.6-21l-7.3-30.7c2.9,4.5,7.8,6.8,16.2,1.6
			C1407.1,543.9,1360.5,512.2,1360.5,512.2z"/>
		<line class="st22" x1="1249.3" y1="544.3" x2="1289.1" y2="544.3"/>
		<circle class="st2" cx="1270.4" cy="550.9" r="7.6"/>
		<line class="st22" x1="1313.8" y1="544.3" x2="1353.7" y2="544.3"/>
		<line class="st22" x1="1292.2" y1="577.1" x2="1329.4" y2="584.9"/>
		<circle class="st2" cx="1335" cy="550.9" r="7.6"/>
		<polygon class="st23" points="1322.9,450 1350.7,512.2 1276.5,512.2 		"/>
		<g>
			<path class="st1" d="M1294.4,488.2c6.8,2.9,34.3-6.9,40.9-10.5l-3.4-7.5c-5.8,5.7-22.4,8.2-30.9,9.2L1294.4,488.2z"/>
			<path class="st1" d="M1343,495l-2.6-5.8c-10.7,6-41,8.4-53.5,9.1l-7.6,10.1c10.9,3.4,54.3-9,62.4-13
				C1341.7,495.4,1342.2,495.2,1343,495z"/>
			<path class="st1" d="M1327.4,460l-4.5-10l-14.8,19.8C1314.1,468.5,1323.3,463.1,1327.4,460z"/>
			<path class="st1" d="M1339.6,512.2h11.2l-1.4-3.2C1346.8,510.2,1343.5,511.2,1339.6,512.2z"/>
		</g>
	</g>
	<g>
		<path class="st21" d="M981.1,332.7h-79.7c0,0-32,21.6-18.2,30.3c5.6,3.5,8.9,2.1,10.9-0.7l-5.1,20.5c-1.8,7.3,3.7,14.5,11.3,14.5
			h81.4c7.5,0,13.1-7,11.3-14.4l-5-21c2,3.1,5.3,4.7,11.1,1.1C1013,354.4,981.1,332.7,981.1,332.7z"/>
		<line class="st24" x1="905.2" y1="354.6" x2="932.4" y2="354.6"/>
		<circle class="st2" cx="919.6" cy="359.1" r="5.2"/>
		<line class="st24" x1="949.3" y1="354.6" x2="976.5" y2="354.6"/>
		<line class="st24" x1="934.5" y1="377.1" x2="959.9" y2="382.4"/>
		<circle class="st2" cx="963.7" cy="359.1" r="5.2"/>
		<polygon class="st23" points="955.5,290.2 974.5,332.7 923.8,332.7 		"/>
		<g>
			<path class="st1" d="M936,316.3c4.6,2,23.4-4.7,28-7.2l-2.3-5.1c-4,3.9-15.3,5.6-21.1,6.3L936,316.3z"/>
			<path class="st1" d="M969.2,320.9l-1.8-4c-7.3,4.1-28,5.7-36.5,6.2l-5.2,6.9c7.4,2.3,37.1-6.2,42.6-8.8
				C968.3,321.2,968.7,321.1,969.2,320.9z"/>
			<path class="st1" d="M958.6,297.1l-3.1-6.8l-10.1,13.5C949.5,302.8,955.8,299.2,958.6,297.1z"/>
			<path class="st1" d="M966.9,332.7h7.6l-1-2.2C971.8,331.3,969.5,332.1,966.9,332.7z"/>
		</g>
	</g>
	<g>
		<path class="st21" d="M1321.5,245h-79.7c0,0-32,21.6-18.2,30.3c5.6,3.5,8.9,2.1,10.9-0.7l-5.1,20.5c-1.8,7.3,3.7,14.5,11.3,14.5
			h81.4c7.5,0,13.1-7,11.3-14.4l-5-21c2,3.1,5.3,4.7,11.1,1.1C1353.3,266.6,1321.5,245,1321.5,245z"/>
		<line class="st24" x1="1245.5" y1="266.9" x2="1272.7" y2="266.9"/>
		<circle class="st2" cx="1260" cy="271.4" r="5.2"/>
		<line class="st24" x1="1289.6" y1="266.9" x2="1316.8" y2="266.9"/>
		<line class="st24" x1="1274.9" y1="289.3" x2="1300.2" y2="294.6"/>
		<circle class="st2" cx="1304.1" cy="271.4" r="5.2"/>
		<polygon class="st23" points="1295.8,202.5 1314.8,245 1264.1,245 		"/>
		<g>
			<path class="st1" d="M1276.3,228.6c4.6,2,23.4-4.7,28-7.2l-2.3-5.1c-4,3.9-15.3,5.6-21.1,6.3L1276.3,228.6z"/>
			<path class="st1" d="M1309.6,233.2l-1.8-4c-7.3,4.1-28,5.7-36.5,6.2l-5.2,6.9c7.4,2.3,37.1-6.2,42.6-8.8
				C1308.7,233.5,1309,233.3,1309.6,233.2z"/>
			<path class="st1" d="M1298.9,209.3l-3.1-6.8l-10.1,13.5C1289.8,215.1,1296.1,211.4,1298.9,209.3z"/>
			<path class="st1" d="M1307.2,245h7.6l-1-2.2C1312.1,243.6,1309.9,244.3,1307.2,245z"/>
		</g>
	</g>
	<g>
		<path class="st21" d="M1404.3,9.4h-79.7c0,0-32,21.6-18.2,30.3c5.6,3.5,8.9,2.1,10.9-0.7l-5.1,20.5c-1.8,7.3,3.7,14.5,11.3,14.5
			h81.4c7.5,0,13.1-7,11.3-14.4l-5-21c2,3.1,5.3,4.7,11.1,1.1C1436.2,31,1404.3,9.4,1404.3,9.4z"/>
		<line class="st24" x1="1328.3" y1="31.3" x2="1355.6" y2="31.3"/>
		<circle class="st2" cx="1342.8" cy="35.8" r="5.2"/>
		<line class="st24" x1="1372.4" y1="31.3" x2="1399.7" y2="31.3"/>
		<line class="st24" x1="1357.7" y1="53.7" x2="1383.1" y2="59"/>
		<circle class="st2" cx="1386.9" cy="35.8" r="5.2"/>
		<polygon class="st23" points="1378.7,-33.1 1397.7,9.4 1346.9,9.4 		"/>
		<g>
			<path class="st1" d="M1359.2-7c4.6,2,23.4-4.7,28-7.2l-2.3-5.1c-4,3.9-15.3,5.6-21.1,6.3L1359.2-7z"/>
			<path class="st1" d="M1392.4-2.4l-1.8-4c-7.3,4.1-28,5.7-36.5,6.2l-5.2,6.9c7.4,2.3,37.1-6.2,42.6-8.8
				C1391.5-2.1,1391.9-2.3,1392.4-2.4z"/>
			<path class="st1" d="M1381.7-26.3l-3.1-6.8l-10.1,13.5C1372.6-20.5,1378.9-24.2,1381.7-26.3z"/>
			<path class="st1" d="M1390,9.4h7.6l-1-2.2C1395,8,1392.7,8.7,1390,9.4z"/>
		</g>
	</g>
	<g>
		<path class="st21" d="M1598.2,361.9h-79.7c0,0-32,21.6-18.2,30.3c5.6,3.5,8.9,2.1,10.9-0.7l-5.1,20.5c-1.8,7.3,3.7,14.5,11.3,14.5
			h81.4c7.5,0,13.1-7,11.3-14.4l-5-21c2,3.1,5.3,4.7,11.1,1.1C1630.1,383.5,1598.2,361.9,1598.2,361.9z"/>
		<line class="st24" x1="1522.3" y1="383.8" x2="1549.5" y2="383.8"/>
		<circle class="st2" cx="1536.7" cy="388.3" r="5.2"/>
		<line class="st24" x1="1566.3" y1="383.8" x2="1593.6" y2="383.8"/>
		<line class="st24" x1="1551.6" y1="406.2" x2="1577" y2="411.6"/>
		<circle class="st2" cx="1580.8" cy="388.3" r="5.2"/>
		<polygon class="st23" points="1572.6,319.4 1591.6,361.9 1540.8,361.9 		"/>
		<g>
			<path class="st1" d="M1553.1,345.5c4.6,2,23.4-4.7,28-7.2l-2.3-5.1c-4,3.9-15.3,5.6-21.1,6.3L1553.1,345.5z"/>
			<path class="st1" d="M1586.3,350.1l-1.8-4c-7.3,4.1-28,5.7-36.5,6.2l-5.2,6.9c7.4,2.3,37.1-6.2,42.6-8.8
				C1585.4,350.4,1585.8,350.3,1586.3,350.1z"/>
			<path class="st1" d="M1575.6,326.2l-3.1-6.8l-10.1,13.5C1566.5,332,1572.8,328.4,1575.6,326.2z"/>
			<path class="st1" d="M1584,361.9h7.6l-1-2.2C1588.9,360.5,1586.6,361.2,1584,361.9z"/>
		</g>
	</g>
	<g>
		<circle class="st6" cx="46.8" cy="37.3" r="41.8"/>
		<path class="st7" d="M31,21.4c0,0,11.8-1,9.9,15.6c-6.1-8.3-13.2-8.9-19.9,0C19.1,20.4,31,21.4,31,21.4z"/>
		<path class="st2" d="M27.2,27.8c0-2.2,1.8-4,4-4s4,1.8,4,4c0,1.4-0.7,2.5-1.7,3.3c-1.6-0.5-3.2-0.6-4.8-0.1
			C27.9,30.2,27.2,29,27.2,27.8z"/>
		<path class="st7" d="M64.2,21.4c0,0,11.8-1,9.9,15.6c-6.1-8.3-13.2-8.9-19.9,0C52.3,20.4,64.2,21.4,64.2,21.4z"/>
		<path class="st2" d="M60.4,27.8c0-2.2,1.8-4,4-4c2.2,0,4,1.8,4,4c0,1.4-0.7,2.5-1.7,3.3c-1.6-0.5-3.2-0.6-4.8-0.1
			C61,30.2,60.4,29,60.4,27.8z"/>
		<path class="st8" d="M28.4,39.1H30c0,0-1.9,7.8,4.6,7.8s13.3,0,13.3,0s6.7,0,13.3,0s4.6-7.8,4.6-7.8h1.6c0,0,0.5,1.7,0,12.2
			S47.9,61.8,47.9,61.8s-19,0-19.5-10.5C27.8,40.8,28.4,39.1,28.4,39.1z"/>
		<path class="st2" d="M67.4,49.3c0,0-2.8,6-21.4,4.7c-18.6-1.3-18-7.1-18-7.1C28.9,53.9,60.9,57.4,67.4,49.3z"/>
		<path class="st2" d="M63.2,40.8c0,0,3-3.7,7.7,0.4c0,0-1.9-3.7-4.3-3.2C64.3,38.4,63.2,40.8,63.2,40.8z"/>
		<path class="st2" d="M25.3,40.8c0,0,3-3.7,7.7,0.4c0,0-1.9-3.7-4.3-3.2C26.5,38.4,25.3,40.8,25.3,40.8z"/>
	</g>
	<g>
		<circle class="st6" cx="109.6" cy="314.2" r="41.8"/>
		<path class="st7" d="M93.8,298.3c0,0,11.8-1,9.9,15.6c-6.1-8.3-13.2-8.9-19.9,0C82,297.3,93.8,298.3,93.8,298.3z"/>
		<path class="st2" d="M90.1,304.6c0-2.2,1.8-4,4-4c2.2,0,4,1.8,4,4c0,1.4-0.7,2.5-1.7,3.3c-1.6-0.5-3.2-0.6-4.8-0.1
			C90.7,307,90.1,305.9,90.1,304.6z"/>
		<path class="st7" d="M127,298.3c0,0,11.8-1,9.9,15.6c-6.1-8.3-13.2-8.9-19.9,0C115.1,297.3,127,298.3,127,298.3z"/>
		<path class="st2" d="M123.2,304.6c0-2.2,1.8-4,4-4c2.2,0,4,1.8,4,4c0,1.4-0.7,2.5-1.7,3.3c-1.6-0.5-3.2-0.6-4.8-0.1
			C123.9,307,123.2,305.9,123.2,304.6z"/>
		<path class="st8" d="M91.2,315.9h1.6c0,0-1.9,7.8,4.6,7.8s13.3,0,13.3,0s6.7,0,13.3,0s4.6-7.8,4.6-7.8h1.6c0,0,0.5,1.7,0,12.2
			c-0.5,10.5-19.5,10.5-19.5,10.5s-19,0-19.5-10.5C90.7,317.6,91.2,315.9,91.2,315.9z"/>
		<path class="st2" d="M130.3,326.1c0,0-2.8,6-21.4,4.7c-18.6-1.3-18-7.1-18-7.1C91.8,330.8,123.8,334.3,130.3,326.1z"/>
		<path class="st2" d="M126,317.6c0,0,3-3.7,7.7,0.4c0,0-1.9-3.7-4.3-3.2C127.1,315.2,126,317.6,126,317.6z"/>
		<path class="st2" d="M88.2,317.6c0,0,3-3.7,7.7,0.4c0,0-1.9-3.7-4.3-3.2C89.3,315.3,88.2,317.6,88.2,317.6z"/>
	</g>
	<g>
		<circle class="st6" cx="311.9" cy="146" r="41.8"/>
		<path class="st7" d="M296.1,130.1c0,0,11.8-1,9.9,15.6c-6.1-8.3-13.2-8.9-19.9,0C284.2,129.1,296.1,130.1,296.1,130.1z"/>
		<path class="st2" d="M292.3,136.4c0-2.2,1.8-4,4-4s4,1.8,4,4c0,1.4-0.7,2.5-1.7,3.3c-1.6-0.5-3.2-0.6-4.8-0.1
			C293,138.9,292.3,137.7,292.3,136.4z"/>
		<path class="st7" d="M329.3,130.1c0,0,11.8-1,9.9,15.6c-6.1-8.3-13.2-8.9-19.9,0C317.4,129.1,329.3,130.1,329.3,130.1z"/>
		<path class="st2" d="M325.5,136.4c0-2.2,1.8-4,4-4c2.2,0,4,1.8,4,4c0,1.4-0.7,2.5-1.7,3.3c-1.6-0.5-3.2-0.6-4.8-0.1
			C326.1,138.9,325.5,137.7,325.5,136.4z"/>
		<path class="st8" d="M293.5,147.7h1.6c0,0-1.9,7.8,4.6,7.8s13.3,0,13.3,0s6.7,0,13.3,0s4.6-7.8,4.6-7.8h1.6c0,0,0.5,1.7,0,12.2
			c-0.5,10.5-19.5,10.5-19.5,10.5s-19,0-19.5-10.5C293,149.5,293.5,147.7,293.5,147.7z"/>
		<path class="st2" d="M332.6,157.9c0,0-2.8,6-21.4,4.7s-18-7.1-18-7.1C294,162.6,326,166.1,332.6,157.9z"/>
		<path class="st2" d="M328.3,149.4c0,0,3-3.7,7.7,0.4c0,0-1.9-3.7-4.3-3.2C329.4,147.1,328.3,149.4,328.3,149.4z"/>
		<path class="st2" d="M290.4,149.5c0,0,3-3.7,7.7,0.4c0,0-1.9-3.7-4.3-3.2C291.6,147.1,290.4,149.5,290.4,149.5z"/>
	</g>
	<g>
		<circle class="st6" cx="475.6" cy="133.5" r="41.8"/>
		<path class="st7" d="M459.9,117.6c0,0,11.8-1,9.9,15.6c-6.1-8.3-13.2-8.9-19.9,0C448,116.6,459.9,117.6,459.9,117.6z"/>
		<path class="st2" d="M456.1,123.9c0-2.2,1.8-4,4-4c2.2,0,4,1.8,4,4c0,1.4-0.7,2.5-1.7,3.3c-1.6-0.5-3.2-0.6-4.8-0.1
			C456.7,126.3,456.1,125.2,456.1,123.9z"/>
		<path class="st7" d="M493,117.6c0,0,11.8-1,9.9,15.6c-6.1-8.3-13.2-8.9-19.9,0C481.2,116.6,493,117.6,493,117.6z"/>
		<path class="st2" d="M489.3,123.9c0-2.2,1.8-4,4-4s4,1.8,4,4c0,1.4-0.7,2.5-1.7,3.3c-1.6-0.5-3.2-0.6-4.8-0.1
			C489.9,126.3,489.3,125.2,489.3,123.9z"/>
		<path class="st8" d="M457.2,135.2h1.6c0,0-1.9,7.8,4.6,7.8s13.3,0,13.3,0s6.7,0,13.3,0c6.5,0,4.6-7.8,4.6-7.8h1.6
			c0,0,0.5,1.7,0,12.2c-0.5,10.5-19.5,10.5-19.5,10.5s-19,0-19.5-10.5C456.7,136.9,457.2,135.2,457.2,135.2z"/>
		<path class="st2" d="M496.3,145.4c0,0-2.8,6-21.4,4.7s-18-7.1-18-7.1C457.8,150.1,489.8,153.6,496.3,145.4z"/>
		<path class="st2" d="M492.1,136.9c0,0,3-3.7,7.7,0.4c0,0-1.9-3.7-4.3-3.2C493.2,134.5,492.1,136.9,492.1,136.9z"/>
		<path class="st2" d="M454.2,136.9c0,0,3-3.7,7.7,0.4c0,0-1.9-3.7-4.3-3.2C455.3,134.6,454.2,136.9,454.2,136.9z"/>
	</g>
	<g>
		<circle class="st6" cx="287.4" cy="14.8" r="59.9"/>
		<path class="st7" d="M264.7-8c0,0,17-1.4,14.3,22.4c-8.8-11.9-19-12.8-28.5,0C247.7-9.4,264.7-8,264.7-8z"/>
		<path class="st2" d="M259.4,1.1c0-3.2,2.6-5.7,5.7-5.7c3.2,0,5.7,2.6,5.7,5.7c0,1.9-1,3.6-2.4,4.7c-2.2-0.7-4.5-0.8-6.8-0.2
			C260.2,4.6,259.4,3,259.4,1.1z"/>
		<path class="st7" d="M312.3-8c0,0,17-1.4,14.3,22.4c-8.8-11.9-19-12.8-28.5,0C295.3-9.4,312.3-8,312.3-8z"/>
		<path class="st2" d="M307,1.1c0-3.2,2.6-5.7,5.7-5.7c3.2,0,5.7,2.6,5.7,5.7c0,1.9-1,3.6-2.4,4.7c-2.2-0.7-4.5-0.8-6.8-0.2
			C307.8,4.6,307,3,307,1.1z"/>
		<path class="st9" d="M261,17.3h2.3c0,0-2.8,11.1,6.6,11.1c9.4,0,19,0,19,0s9.7,0,19,0c9.4,0,6.6-11.1,6.6-11.1h2.3
			c0,0,0.7,2.5,0,17.6c-0.7,15.1-28,15.1-28,15.1s-27.2,0-28-15.1C260.2,19.8,261,17.3,261,17.3z"/>
		<path class="st2" d="M317,32c0,0-4,8.6-30.6,6.7s-25.8-10.2-25.8-10.2C261.8,38.6,307.7,43.7,317,32z"/>
		<path class="st2" d="M310.9,19.8c0,0,4.3-5.3,11,0.6c0,0-2.8-5.3-6.1-4.6C312.5,16.4,310.9,19.8,310.9,19.8z"/>
		<path class="st2" d="M256.6,19.8c0,0,4.3-5.3,11,0.6c0,0-2.8-5.3-6.1-4.6C258.2,16.4,256.6,19.8,256.6,19.8z"/>
	</g>
	<g>
		<circle class="st6" cx="443" cy="309.5" r="59.9"/>
		<path class="st7" d="M420.3,286.7c0,0,17-1.4,14.3,22.4c-8.8-11.9-19-12.8-28.5,0C403.4,285.3,420.3,286.7,420.3,286.7z"/>
		<path class="st2" d="M415,295.8c0-3.2,2.6-5.7,5.7-5.7s5.7,2.6,5.7,5.7c0,1.9-1,3.6-2.4,4.7c-2.2-0.7-4.5-0.8-6.8-0.2
			C415.9,299.2,415,297.6,415,295.8z"/>
		<path class="st7" d="M467.9,286.7c0,0,17-1.4,14.3,22.4c-8.8-11.9-19-12.8-28.5,0C451,285.3,467.9,286.7,467.9,286.7z"/>
		<path class="st2" d="M462.6,295.8c0-3.2,2.6-5.7,5.7-5.7c3.2,0,5.7,2.6,5.7,5.7c0,1.9-1,3.6-2.4,4.7c-2.2-0.7-4.5-0.8-6.8-0.2
			C463.5,299.2,462.6,297.6,462.6,295.8z"/>
		<path class="st9" d="M416.6,312h2.3c0,0-2.8,11.1,6.6,11.1c9.4,0,19,0,19,0s9.7,0,19,0c9.4,0,6.6-11.1,6.6-11.1h2.3
			c0,0,0.7,2.5,0,17.6c-0.7,15.1-28,15.1-28,15.1s-27.2,0-28-15.1C415.9,314.5,416.6,312,416.6,312z"/>
		<path class="st2" d="M472.7,326.6c0,0-4,8.6-30.6,6.7s-25.8-10.2-25.8-10.2C417.4,333.3,463.3,338.4,472.7,326.6z"/>
		<path class="st2" d="M466.5,314.4c0,0,4.3-5.3,11,0.6c0,0-2.8-5.3-6.1-4.6C468.1,311.1,466.5,314.4,466.5,314.4z"/>
		<path class="st2" d="M412.2,314.5c0,0,4.3-5.3,11,0.6c0,0-2.8-5.3-6.1-4.6S412.2,314.5,412.2,314.5z"/>
	</g>
	<g>
		<path class="st10" d="M112.4-5.1h-9.2c-5.7,0-11,3.2-13.6,8.3L76,30.3c-5.1,10.1,2.2,22.1,13.6,22.1h36.6
			c11.3,0,18.7-12,13.6-22.1L126,3.2C123.4-1.9,118.1-5.1,112.4-5.1z"/>
		<ellipse class="st2" cx="117.4" cy="17.6" rx="4.2" ry="7.8"/>
		<ellipse class="st2" cx="97.4" cy="17.6" rx="4.2" ry="7.8"/>
		<path class="st2" d="M96.1,32.1c5.8,4.3,21.5,7.4,25.4,0C121.5,37.7,109.8,42.7,96.1,32.1z"/>
		<path class="st11" d="M107.8,11.4c2.4-6.8,7.4-11,13.7-13.7c-0.4-1.1-11.4-7.1-13.7-13.7C104.6-9.4,95.5-4.6,94.1-2.3
			C100.2-0.8,104.6,4.2,107.8,11.4z"/>
	</g>
	<g>
		<path class="st10" d="M117.3,142.1l-12.9,2.5c-8.1,1.6-14.5,7.6-16.8,15.5l-11.8,41.8c-4.4,15.6,9.2,30.4,25.2,27.3l51.5-10.2
			c15.9-3.1,23-22,12.9-34.8L138.7,150C133.7,143.5,125.4,140.5,117.3,142.1z"/>
		
			<ellipse transform="matrix(0.9811 -0.1937 0.1937 0.9811 -30.9649 28.5749)" class="st2" cx="130.6" cy="172.6" rx="6" ry="11.2"/>
		
			<ellipse transform="matrix(0.9811 -0.1937 0.1937 0.9811 -32.5696 23.2456)" class="st2" cx="102.6" cy="178.1" rx="6" ry="11.2"/>
		<path class="st2" d="M104.7,198.8c9.4,4.4,32.2,4.4,35.8-7.1C142.1,199.7,127,209.9,104.7,198.8z"/>
		<path class="st11" d="M115.5,166.5c1.6-10.3,7.3-17.5,15.4-23c-0.9-1.4-18-6.8-23-15.4c-2.7,10.1-14.1,19.5-15.4,23
			C101.4,151.5,108.9,157.2,115.5,166.5z"/>
	</g>
	<g>
		<path class="st10" d="M401.5,170.4h-13.1c-8.2,0-15.7,4.6-19.4,11.9L349.3,221c-7.4,14.5,3.2,31.7,19.4,31.7h52.5
			c16.3,0,26.8-17.2,19.4-31.7l-19.7-38.7C417.2,175,409.7,170.4,401.5,170.4z"/>
		<ellipse class="st2" cx="408.6" cy="202.9" rx="6" ry="11.2"/>
		<ellipse class="st2" cx="380" cy="202.9" rx="6" ry="11.2"/>
		<path class="st2" d="M378.1,223.6c8.3,6.1,30.8,10.5,36.4,0C414.6,231.7,397.8,238.8,378.1,223.6z"/>
		<path class="st11" d="M394.9,193.9c3.5-9.8,10.6-15.7,19.6-19.6c-0.6-1.5-16.3-10.1-19.6-19.6c-4.6,9.4-17.6,16.4-19.6,19.6
			C384.1,176.5,390.3,183.6,394.9,193.9z"/>
	</g>
	<g>
		<path class="st10" d="M483.4-26.6h-13.1c-8.2,0-15.7,4.6-19.4,11.9L431.1,24c-7.4,14.5,3.2,31.7,19.4,31.7H503
			c16.3,0,26.8-17.2,19.4-31.7l-19.7-38.7C499.1-22,491.6-26.6,483.4-26.6z"/>
		<ellipse class="st2" cx="490.5" cy="5.9" rx="6" ry="11.2"/>
		<ellipse class="st2" cx="461.9" cy="5.9" rx="6" ry="11.2"/>
		<path class="st2" d="M460,26.6c8.3,6.1,30.8,10.5,36.4,0C496.5,34.7,479.7,41.8,460,26.6z"/>
		<path class="st11" d="M476.8-3.1c3.5-9.8,10.6-15.7,19.6-19.6c-0.6-1.5-16.3-10.1-19.6-19.6c-4.6,9.4-17.6,16.4-19.6,19.6
			C466-20.5,472.2-13.4,476.8-3.1z"/>
	</g>
	<g>
		<path class="st10" d="M579.3,138.4h-13.1c-8.2,0-15.7,4.6-19.4,11.9l-19.7,38.7c-7.4,14.5,3.2,31.7,19.4,31.7H599
			c16.3,0,26.8-17.2,19.4-31.7l-19.7-38.7C595,143.1,587.5,138.4,579.3,138.4z"/>
		<ellipse class="st2" cx="586.4" cy="171" rx="6" ry="11.2"/>
		<ellipse class="st2" cx="557.8" cy="171" rx="6" ry="11.2"/>
		<path class="st2" d="M555.9,191.7c8.3,6.1,30.8,10.5,36.4,0C592.4,199.8,575.7,206.9,555.9,191.7z"/>
		<path class="st11" d="M572.8,162c3.5-9.8,10.6-15.7,19.6-19.6c-0.6-1.5-16.3-10.1-19.6-19.6c-4.6,9.4-17.6,16.4-19.6,19.6
			C561.9,144.6,568.1,151.7,572.8,162z"/>
	</g>
	<g>
		<path class="st10" d="M339,59h-7.8c-4.9,0-9.4,2.7-11.6,7.1l-11.7,23.1c-4.4,8.6,1.9,18.9,11.6,18.9h31.3c9.7,0,16-10.2,11.6-18.9
			l-11.7-23.1C348.4,61.8,343.9,59,339,59z"/>
		<ellipse class="st2" cx="343.3" cy="78.4" rx="3.6" ry="6.6"/>
		<ellipse class="st2" cx="326.2" cy="78.4" rx="3.6" ry="6.6"/>
		<path class="st2" d="M325.1,90.8c5,3.7,18.4,6.3,21.7,0C346.8,95.6,336.8,99.8,325.1,90.8z"/>
		<path class="st11" d="M335.1,73.1c2.1-5.8,6.3-9.4,11.7-11.7c-0.4-0.9-9.7-6-11.7-11.7c-2.8,5.6-10.5,9.8-11.7,11.7
			C328.6,62.7,332.4,66.9,335.1,73.1z"/>
	</g>
	<g>
		<circle class="st12" cx="5.9" cy="83.1" r="33.5"/>
		<g>
			<path class="st13" d="M-8.7,78.8h7.2c-0.2,12.1-14.6,12.1-14.4,0H-8.7z"/>
			<path class="st2" d="M-1.4,78.8c0,0,1.6,10.3-4.5,11.8C-5.9,90.5-2,86.2-1.4,78.8z"/>
			<path class="st2" d="M-5.8,78.8c0.3,0.5,0.5,1.1,0.5,1.7c0,1.8-1.4,3.2-3.2,3.2s-3.2-1.4-3.2-3.2c0-0.6,0.2-1.2,0.5-1.7h2.4H-5.8
				z"/>
		</g>
		<g>
			<path class="st13" d="M20.4,78.8h-7.2c0.2,12.1,14.6,12.1,14.4,0H20.4z"/>
			<path class="st2" d="M13.2,78.8c0,0-1.6,10.3,4.5,11.8C17.7,90.5,13.7,86.2,13.2,78.8z"/>
			<path class="st2" d="M17.5,78.8c-0.3,0.5-0.5,1.1-0.5,1.7c0,1.8,1.4,3.2,3.2,3.2c1.8,0,3.2-1.4,3.2-3.2c0-0.6-0.2-1.2-0.5-1.7
				h-2.4H17.5z"/>
		</g>
		<path class="st2" d="M15.6,97.5c0,0-10.5-9.2-17.8-2.4c-1.4,2.6,6.1,3.4,9.2,1.4C9.1,95,15.6,97.5,15.6,97.5z"/>
		<path class="st14" d="M-6.9,65.9c-2.9,0-5,0.8-5.7,3.3"/>
		<path class="st14" d="M-9.7,59.3c0,2.9,0.8,5,3.2,5.7"/>
		<path class="st14" d="M-16.2,62.5c2.9,0,5-0.8,5.7-3.2"/>
		<path class="st14" d="M-13,69c-0.2-2.9-1.1-4.9-3.7-5.4"/>
	</g>
	<g>
		<circle class="st12" cx="-6.7" cy="10.8" r="33.5"/>
		<g>
			<path class="st13" d="M-21.2,6.4h7.2c-0.2,12.1-14.6,12.1-14.4,0H-21.2z"/>
			<path class="st2" d="M-14,6.4c0,0,1.6,10.3-4.5,11.8C-18.5,18.2-14.5,13.9-14,6.4z"/>
			<path class="st2" d="M-18.3,6.4c0.3,0.5,0.5,1.1,0.5,1.7c0,1.8-1.4,3.2-3.2,3.2c-1.8,0-3.2-1.4-3.2-3.2c0-0.6,0.2-1.2,0.5-1.7
				h2.4H-18.3z"/>
		</g>
		<g>
			<path class="st13" d="M7.8,6.4H0.6c0.2,12.1,14.6,12.1,14.4,0H7.8z"/>
			<path class="st2" d="M0.6,6.4c0,0-1.6,10.3,4.5,11.8C5.1,18.2,1.2,13.9,0.6,6.4z"/>
			<path class="st2" d="M5,6.4C4.6,6.9,4.4,7.5,4.4,8.1c0,1.8,1.4,3.2,3.2,3.2s3.2-1.4,3.2-3.2c0-0.6-0.2-1.2-0.5-1.7H7.8H5z"/>
		</g>
		<path class="st2" d="M3.1,25.1c0,0-10.5-9.2-17.8-2.4c-1.4,2.6,6.1,3.4,9.2,1.4C-3.4,22.7,3.1,25.1,3.1,25.1z"/>
		<path class="st14" d="M-19.4-6.4c-2.9,0-5,0.8-5.7,3.3"/>
		<path class="st14" d="M-22.3-13c0,2.9,0.8,5,3.2,5.7"/>
		<path class="st14" d="M-28.8-9.9c2.9,0,5-0.8,5.7-3.2"/>
		<path class="st14" d="M-25.6-3.4c-0.2-2.9-1.1-4.9-3.7-5.4"/>
	</g>
	<g>
		<circle class="st12" cx="28.1" cy="251.5" r="33.5"/>
		<g>
			<path class="st13" d="M13.6,247.2h7.2c-0.2,12.1-14.6,12.1-14.4,0H13.6z"/>
			<path class="st2" d="M20.8,247.2c0,0,1.6,10.3-4.5,11.8C16.4,258.9,20.3,254.7,20.8,247.2z"/>
			<path class="st2" d="M16.5,247.2c0.3,0.5,0.5,1.1,0.5,1.7c0,1.8-1.4,3.2-3.2,3.2s-3.2-1.4-3.2-3.2c0-0.6,0.2-1.2,0.5-1.7h2.4
				H16.5z"/>
		</g>
		<g>
			<path class="st13" d="M42.7,247.2h-7.2c0.2,12.1,14.6,12.1,14.4,0H42.7z"/>
			<path class="st2" d="M35.4,247.2c0,0-1.6,10.3,4.5,11.8C39.9,258.9,36,254.7,35.4,247.2z"/>
			<path class="st2" d="M39.8,247.2c-0.3,0.5-0.5,1.1-0.5,1.7c0,1.8,1.4,3.2,3.2,3.2c1.8,0,3.2-1.4,3.2-3.2c0-0.6-0.2-1.2-0.5-1.7
				h-2.4H39.8z"/>
		</g>
		<path class="st2" d="M37.9,265.9c0,0-10.5-9.2-17.8-2.4c-1.4,2.6,6.1,3.4,9.2,1.4C31.4,263.5,37.9,265.9,37.9,265.9z"/>
		<path class="st14" d="M15.4,234.4c-2.9,0-5,0.8-5.7,3.3"/>
		<path class="st14" d="M12.5,227.8c0,2.9,0.8,5,3.2,5.7"/>
		<path class="st14" d="M6,230.9c2.9,0,5-0.8,5.7-3.2"/>
		<path class="st14" d="M9.3,237.4c-0.2-2.9-1.1-4.9-3.7-5.4"/>
	</g>
	<g>
		<circle class="st12" cx="213.3" cy="150.6" r="33.5"/>
		<g>
			<path class="st13" d="M198.8,146.3h7.2c-0.2,12.1-14.6,12.1-14.4,0H198.8z"/>
			<path class="st2" d="M206,146.3c0,0,1.6,10.3-4.5,11.8C201.5,158,205.4,153.7,206,146.3z"/>
			<path class="st2" d="M201.7,146.3c0.3,0.5,0.5,1.1,0.5,1.7c0,1.8-1.4,3.2-3.2,3.2c-1.8,0-3.2-1.4-3.2-3.2c0-0.6,0.2-1.2,0.5-1.7
				h2.4H201.7z"/>
		</g>
		<g>
			<path class="st13" d="M227.8,146.3h-7.2c0.2,12.1,14.6,12.1,14.4,0H227.8z"/>
			<path class="st2" d="M220.6,146.3c0,0-1.6,10.3,4.5,11.8C225.1,158,221.2,153.7,220.6,146.3z"/>
			<path class="st2" d="M224.9,146.3c-0.3,0.5-0.5,1.1-0.5,1.7c0,1.8,1.4,3.2,3.2,3.2c1.8,0,3.2-1.4,3.2-3.2c0-0.6-0.2-1.2-0.5-1.7
				h-2.4H224.9z"/>
		</g>
		<path class="st2" d="M223.1,165c0,0-10.5-9.2-17.8-2.4c-1.4,2.6,6.1,3.4,9.2,1.4C216.6,162.6,223.1,165,223.1,165z"/>
		<path class="st14" d="M200.5,133.5c-2.9,0-5,0.8-5.7,3.3"/>
		<path class="st14" d="M197.7,126.9c0,2.9,0.8,5,3.2,5.7"/>
		<path class="st14" d="M191.2,130c2.9,0,5-0.8,5.7-3.2"/>
		<path class="st14" d="M194.4,136.5c-0.2-2.9-1.1-4.9-3.7-5.4"/>
	</g>
	<g>
		<circle class="st12" cx="407.7" cy="115.3" r="33.5"/>
		<g>
			<path class="st13" d="M393.2,110.9h7.2c-0.2,12.1-14.6,12.1-14.4,0H393.2z"/>
			<path class="st2" d="M400.4,110.9c0,0,1.6,10.3-4.5,11.8C395.9,122.7,399.8,118.4,400.4,110.9z"/>
			<path class="st2" d="M396.1,110.9c0.3,0.5,0.5,1.1,0.5,1.7c0,1.8-1.4,3.2-3.2,3.2s-3.2-1.4-3.2-3.2c0-0.6,0.2-1.2,0.5-1.7h2.4
				H396.1z"/>
		</g>
		<g>
			<path class="st13" d="M422.2,110.9H415c0.2,12.1,14.6,12.1,14.4,0H422.2z"/>
			<path class="st2" d="M415,110.9c0,0-1.6,10.3,4.5,11.8C419.5,122.7,415.6,118.4,415,110.9z"/>
			<path class="st2" d="M419.3,110.9c-0.3,0.5-0.5,1.1-0.5,1.7c0,1.8,1.4,3.2,3.2,3.2c1.8,0,3.2-1.4,3.2-3.2c0-0.6-0.2-1.2-0.5-1.7
				h-2.4H419.3z"/>
		</g>
		<path class="st2" d="M417.5,129.6c0,0-10.5-9.2-17.8-2.4c-1.4,2.6,6.1,3.4,9.2,1.4C411,127.2,417.5,129.6,417.5,129.6z"/>
		<path class="st14" d="M394.9,98.1c-2.9,0-5,0.8-5.7,3.3"/>
		<path class="st14" d="M392.1,91.5c0,2.9,0.8,5,3.2,5.7"/>
		<path class="st14" d="M385.6,94.6c2.9,0,5-0.8,5.7-3.2"/>
		<path class="st14" d="M388.8,101.1c-0.2-2.9-1.1-4.9-3.7-5.4"/>
	</g>
	<g>
		<circle class="st12" cx="368.4" cy="27.7" r="45.4"/>
		<g>
			<path class="st15" d="M348.7,21.8h9.8c-0.2,16.4-19.9,16.4-19.6,0H348.7z"/>
			<path class="st2" d="M358.5,21.8c0,0,2.2,14-6.1,16C352.4,37.7,357.8,31.9,358.5,21.8z"/>
			<path class="st2" d="M352.7,21.8c0.4,0.7,0.7,1.5,0.7,2.4c0,2.4-1.9,4.3-4.3,4.3s-4.3-1.9-4.3-4.3c0-0.9,0.3-1.7,0.7-2.4h3.3
				H352.7z"/>
		</g>
		<g>
			<path class="st15" d="M388.2,21.8h-9.8c0.2,16.4,19.9,16.4,19.6,0H388.2z"/>
			<path class="st2" d="M378.4,21.8c0,0-2.2,14,6.1,16C384.4,37.7,379.1,31.9,378.4,21.8z"/>
			<path class="st2" d="M384.2,21.8c-0.4,0.7-0.7,1.5-0.7,2.4c0,2.4,1.9,4.3,4.3,4.3s4.3-1.9,4.3-4.3c0-0.9-0.3-1.7-0.7-2.4h-3.3
				H384.2z"/>
		</g>
		<path class="st2" d="M381.7,47.1c0,0-14.3-12.6-24.2-3.3c-1.9,3.5,8.3,4.6,12.6,1.9C372.8,43.9,381.7,47.1,381.7,47.1z"/>
		<path class="st16" d="M351.1,4.4c-3.9,0-6.8,1.1-7.7,4.4"/>
		<path class="st16" d="M347.3-4.6c0,3.9,1.1,6.8,4.4,7.7"/>
		<path class="st16" d="M338.4-0.4c3.9,0,6.8-1,7.7-4.4"/>
		<path class="st16" d="M342.8,8.5c-0.3-3.9-1.5-6.7-5-7.4"/>
	</g>
	<g>
		<circle class="st12" cx="662.7" cy="96.1" r="45.4"/>
		<g>
			<path class="st15" d="M643,90.2h9.8c-0.2,16.4-19.9,16.4-19.6,0H643z"/>
			<path class="st2" d="M652.8,90.2c0,0,2.2,14-6.1,16C646.7,106.1,652,100.3,652.8,90.2z"/>
			<path class="st2" d="M646.9,90.2c0.4,0.7,0.7,1.5,0.7,2.4c0,2.4-1.9,4.3-4.3,4.3c-2.4,0-4.3-1.9-4.3-4.3c0-0.9,0.3-1.7,0.7-2.4
				h3.3H646.9z"/>
		</g>
		<g>
			<path class="st15" d="M682.4,90.2h-9.8c0.2,16.4,19.9,16.4,19.6,0H682.4z"/>
			<path class="st2" d="M672.6,90.2c0,0-2.2,14,6.1,16C678.7,106.1,673.4,100.3,672.6,90.2z"/>
			<path class="st2" d="M678.5,90.2c-0.4,0.7-0.7,1.5-0.7,2.4c0,2.4,1.9,4.3,4.3,4.3c2.4,0,4.3-1.9,4.3-4.3c0-0.9-0.3-1.7-0.7-2.4
				h-3.3H678.5z"/>
		</g>
		<path class="st2" d="M675.9,115.6c0,0-14.3-12.6-24.2-3.3c-1.9,3.5,8.3,4.6,12.6,1.9C667.1,112.3,675.9,115.6,675.9,115.6z"/>
		<path class="st16" d="M645.4,72.8c-3.9,0-6.8,1.1-7.7,4.4"/>
		<path class="st16" d="M641.5,63.8c0,3.9,1.1,6.8,4.4,7.7"/>
		<path class="st16" d="M632.7,68.1c3.9,0,6.8-1,7.7-4.4"/>
		<path class="st16" d="M637.1,76.9c-0.3-3.9-1.5-6.7-5-7.4"/>
	</g>
	<g>
		<circle class="st12" cx="655.2" cy="297" r="45.4"/>
		<g>
			<path class="st15" d="M635.5,291.1h9.8c-0.2,16.4-19.9,16.4-19.6,0H635.5z"/>
			<path class="st2" d="M645.3,291.1c0,0,2.2,14-6.1,16C639.2,307,644.5,301.2,645.3,291.1z"/>
			<path class="st2" d="M639.4,291.1c0.4,0.7,0.7,1.5,0.7,2.4c0,2.4-1.9,4.3-4.3,4.3c-2.4,0-4.3-1.9-4.3-4.3c0-0.9,0.3-1.7,0.7-2.4
				h3.3H639.4z"/>
		</g>
		<g>
			<path class="st15" d="M674.9,291.1h-9.8c0.2,16.4,19.9,16.4,19.6,0H674.9z"/>
			<path class="st2" d="M665.1,291.1c0,0-2.2,14,6.1,16C671.2,307,665.9,301.2,665.1,291.1z"/>
			<path class="st2" d="M671,291.1c-0.4,0.7-0.7,1.5-0.7,2.4c0,2.4,1.9,4.3,4.3,4.3c2.4,0,4.3-1.9,4.3-4.3c0-0.9-0.3-1.7-0.7-2.4
				h-3.3H671z"/>
		</g>
		<path class="st2" d="M668.5,316.4c0,0-14.3-12.6-24.2-3.3c-1.9,3.5,8.3,4.6,12.6,1.9C659.6,313.2,668.5,316.4,668.5,316.4z"/>
		<path class="st16" d="M637.9,273.7c-3.9,0-6.8,1.1-7.7,4.4"/>
		<path class="st16" d="M634,264.7c0,3.9,1.1,6.8,4.4,7.7"/>
		<path class="st16" d="M625.2,268.9c3.9,0,6.8-1,7.7-4.4"/>
		<path class="st16" d="M629.6,277.8c-0.3-3.9-1.5-6.7-5-7.4"/>
	</g>
	<g>
		<path class="st21" d="M78.7,62.6h60.1c0,0,24.1,16.3,13.7,22.8c-4.2,2.6-6.7,1.6-8.2-0.6l3.8,15.5c1.4,5.5-2.8,10.9-8.5,10.9H78.2
			c-5.7,0-9.9-5.3-8.6-10.8l3.8-15.8c-1.5,2.3-4,3.5-8.4,0.8C54.6,78.9,78.7,62.6,78.7,62.6z"/>
		<line class="st25" x1="136" y1="79.1" x2="115.5" y2="79.1"/>
		<circle class="st2" cx="125.1" cy="82.5" r="3.9"/>
		<line class="st25" x1="102.7" y1="79.1" x2="82.2" y2="79.1"/>
		<line class="st25" x1="113.9" y1="96.1" x2="94.7" y2="100.1"/>
		<circle class="st2" cx="91.8" cy="82.5" r="3.9"/>
		<polygon class="st23" points="98,30.5 83.7,62.6 122,62.6 		"/>
		<g>
			<path class="st1" d="M112.8,50.2c-3.5,1.5-17.7-3.6-21.1-5.4l1.7-3.9c3,2.9,11.5,4.2,16,4.7L112.8,50.2z"/>
			<path class="st1" d="M87.7,53.7l1.3-3c5.5,3.1,21.1,4.3,27.6,4.7l3.9,5.2c-5.6,1.8-28-4.7-32.2-6.7
				C88.3,53.9,88.1,53.8,87.7,53.7z"/>
			<path class="st1" d="M95.7,35.7l2.3-5.2l7.6,10.2C102.6,40.1,97.8,37.3,95.7,35.7z"/>
			<path class="st1" d="M89.5,62.6h-5.8l0.7-1.7C85.7,61.6,87.4,62.1,89.5,62.6z"/>
		</g>
	</g>
	<g>
		<circle class="st12" cx="351.2" cy="333.5" r="55.7"/>
		<g>
			<path class="st26" d="M327,326.3h12c-0.3,20.2-24.4,20.2-24,0H327z"/>
			<path class="st2" d="M339,326.3c0,0,2.6,17.1-7.5,19.6C331.6,345.9,338.1,338.7,339,326.3z"/>
			<path class="st2" d="M331.8,326.3c0.5,0.8,0.9,1.8,0.9,2.9c0,2.9-2.4,5.3-5.3,5.3s-5.3-2.4-5.3-5.3c0-1.1,0.3-2.1,0.9-2.9h4
				H331.8z"/>
		</g>
		<g>
			<path class="st26" d="M375.3,326.3h-12c0.3,20.2,24.4,20.2,24,0H375.3z"/>
			<path class="st2" d="M363.3,326.3c0,0-2.6,17.1,7.5,19.6C370.8,345.9,364.3,338.7,363.3,326.3z"/>
			<path class="st2" d="M370.5,326.3c-0.5,0.8-0.9,1.8-0.9,2.9c0,2.9,2.4,5.3,5.3,5.3c2.9,0,5.3-2.4,5.3-5.3c0-1.1-0.3-2.1-0.9-2.9
				h-4H370.5z"/>
		</g>
		<path class="st2" d="M367.4,357.4c0,0-17.5-15.4-29.7-4c-2.3,4.3,10.2,5.7,15.4,2.3C356.6,353.4,367.4,357.4,367.4,357.4z"/>
		<path class="st27" d="M329.9,305c-4.8,0-8.3,1.3-9.4,5.4"/>
		<path class="st27" d="M325.2,294c0,4.8,1.3,8.3,5.4,9.5"/>
		<path class="st27" d="M314.4,299.2c4.8,0,8.3-1.3,9.5-5.4"/>
		<path class="st27" d="M319.7,310c-0.3-4.8-1.9-8.2-6.1-9"/>
	</g>
	<g>
		<path class="st12" d="M1197.7,366.8c0-26.3,21.3-47.7,47.7-47.7s47.7,21.3,47.7,47.7c0,17.1-9,32.1-22.5,40.5
			c-0.5,4.2-4.1,8.7-17.2,8.7c-22.8,0-36-0.6-33.2-8.7C1206.7,398.9,1197.7,383.9,1197.7,366.8z"/>
		<path class="st17" d="M1227.1,381.4c0,0,14.5,17.5,1.5,26.3s29.1,4.1,30.4,2.8c1.3-1.3,12.2-15.1-21.3-33.7
			C1226.1,371.1,1224.1,380,1227.1,381.4z"/>
		<path class="st18" d="M1234.9,359c1.4-8.7,5.2-13.5,10.5-15.8"/>
		<path class="st18" d="M1234.9,359c6.7-5.8,8.6-7,14.2-5.4"/>
		<path class="st19" d="M1204.3,362.6c7.1-4,12-2.7,15.5,1.9"/>
		<path class="st19" d="M1205.1,369.6c4.7-6.7,9.6-7.7,14.7-5.2"/>
		<path class="st20" d="M1234.9,359.9c0,0,16.9-0.8,26.2,10.5c0.2,0.2,0.5,0,0.4-0.2c-1-3.5-4.3-13.9-9.6-14.5c0,0-1.8,1.6-2.6,0.8
			C1248.5,355.6,1234.9,352.4,1234.9,359.9z"/>
		<path class="st20" d="M1220.3,365.1c0,0-14.1,9.4-14.9,23.9c0,0.3-0.4,0.3-0.5,0.1c-1.3-3.4-4.7-13.8-0.9-17.3
			c0,0,2.4,0.3,2.6-0.9C1206.7,369.7,1215.8,359,1220.3,365.1z"/>
		<path class="st20" d="M1271.8,376.4c6.1,2.6,3.1,13.6,8.3,10.5C1287.8,382.3,1271.8,376.4,1271.8,376.4z"/>
		<path class="st20" d="M1205.1,397.2c-4.9-1.5-2.4,10-5.9,7.5C1193.5,400.7,1201.3,394.8,1205.1,397.2z"/>
	</g>
	<g>
		<path class="st12" d="M151.4,64.3c0-26.3,21.3-47.7,47.7-47.7s47.7,21.3,47.7,47.7c0,17.1-9,32.1-22.5,40.5
			c-0.5,4.2-4.1,8.7-17.2,8.7c-22.8,0-36-0.6-33.2-8.7C160.4,96.3,151.4,81.3,151.4,64.3z"/>
		<path class="st17" d="M180.8,78.8c0,0,14.5,17.5,1.5,26.3c-13,8.8,29.1,4.1,30.4,2.8c1.3-1.3,12.2-15.1-21.3-33.7
			C179.8,68.6,177.8,77.5,180.8,78.8z"/>
		<path class="st18" d="M188.6,56.5c1.4-8.7,5.2-13.5,10.5-15.8"/>
		<path class="st18" d="M188.6,56.5c6.7-5.8,8.6-7,14.2-5.4"/>
		<path class="st19" d="M158,60.1c7.1-4,12-2.7,15.5,1.9"/>
		<path class="st19" d="M158.8,67.1c4.7-6.7,9.6-7.7,14.7-5.2"/>
		<path class="st20" d="M188.6,57.3c0,0,16.9-0.8,26.2,10.5c0.2,0.2,0.5,0,0.4-0.2c-1-3.5-4.3-13.9-9.6-14.5c0,0-1.8,1.6-2.6,0.8
			C202.2,53,188.6,49.8,188.6,57.3z"/>
		<path class="st20" d="M174,62.5c0,0-14.1,9.4-14.9,23.9c0,0.3-0.4,0.3-0.5,0.1c-1.3-3.4-4.7-13.8-0.9-17.3c0,0,2.4,0.3,2.6-0.9
			C160.4,67.1,169.5,56.5,174,62.5z"/>
		<path class="st20" d="M225.5,73.9c6.1,2.6,3.1,13.6,8.3,10.5C241.5,79.7,225.5,73.9,225.5,73.9z"/>
		<path class="st20" d="M158.8,94.6c-4.9-1.5-2.4,10-5.9,7.5C147.2,98.2,155,92.2,158.8,94.6z"/>
	</g>
	<g>
		<path class="st12" d="M20.6,103.7c0-20.2,16.4-36.5,36.5-36.5s36.5,16.4,36.5,36.5c0,13.1-6.9,24.6-17.2,31
			c-0.4,3.2-3.1,6.7-13.2,6.7c-17.5,0-27.5-0.5-25.4-6.7C27.5,128.2,20.6,116.8,20.6,103.7z"/>
		<path class="st17" d="M43.1,114.8c0,0,11.1,13.4,1.1,20.1c-10,6.7,22.3,3.1,23.3,2.1c1-1,9.3-11.6-16.3-25.8
			C42.4,107,40.9,113.8,43.1,114.8z"/>
		<path class="st28" d="M49.1,97.7c1.1-6.7,4-10.3,8-12.1"/>
		<path class="st28" d="M49.1,97.7c5.1-4.4,6.6-5.4,10.8-4.1"/>
		<path class="st29" d="M25.7,100.5c5.5-3.1,9.2-2.1,11.9,1.4"/>
		<path class="st29" d="M26.3,105.8c3.6-5.2,7.4-5.9,11.3-4"/>
		<path class="st20" d="M49.1,98.4c0,0,13-0.6,20.1,8c0.1,0.2,0.4,0,0.3-0.2c-0.8-2.7-3.3-10.7-7.3-11.1c0,0-1.4,1.2-2,0.6
			C59.6,95.1,49.1,92.6,49.1,98.4z"/>
		<path class="st20" d="M37.9,102.4c0,0-10.8,7.2-11.4,18.3c0,0.2-0.3,0.2-0.4,0.1c-1-2.6-3.6-10.6-0.7-13.3c0,0,1.8,0.2,2-0.7
			C27.6,105.9,34.5,97.7,37.9,102.4z"/>
		<path class="st20" d="M77.4,111c4.7,2,2.4,10.5,6.4,8.1C89.7,115.5,77.4,111,77.4,111z"/>
		<path class="st20" d="M26.3,126.9c-3.7-1.1-1.8,7.6-4.5,5.8C17.4,129.7,23.4,125.1,26.3,126.9z"/>
	</g>
	<g>
		<path class="st12" d="M-27,358.4c0-26.3,21.3-47.7,47.7-47.7s47.7,21.3,47.7,47.7c0,17.1-9,32.1-22.5,40.5
			c-0.5,4.2-4.1,8.7-17.2,8.7c-22.8,0-36-0.6-33.2-8.7C-18,390.4-27,375.5-27,358.4z"/>
		<path class="st17" d="M2.4,372.9c0,0,14.5,17.5,1.5,26.3s29.1,4.1,30.4,2.8c1.3-1.3,12.2-15.1-21.3-33.7
			C1.4,362.7-0.6,371.6,2.4,372.9z"/>
		<path class="st18" d="M10.2,350.6c1.4-8.7,5.2-13.5,10.5-15.8"/>
		<path class="st18" d="M10.2,350.6c6.7-5.8,8.6-7,14.2-5.4"/>
		<path class="st19" d="M-20.4,354.2c7.1-4,12-2.7,15.5,1.9"/>
		<path class="st19" d="M-19.6,361.2c4.7-6.7,9.6-7.7,14.7-5.2"/>
		<path class="st20" d="M10.2,351.5c0,0,16.9-0.8,26.2,10.5c0.2,0.2,0.5,0,0.4-0.2c-1-3.5-4.3-13.9-9.6-14.5c0,0-1.8,1.6-2.6,0.8
			S10.2,343.9,10.2,351.5z"/>
		<path class="st20" d="M-4.4,356.7c0,0-14.1,9.4-14.9,23.9c0,0.3-0.4,0.3-0.5,0.1c-1.3-3.4-4.7-13.8-0.9-17.3c0,0,2.4,0.3,2.6-0.9
			C-18,361.2-8.9,350.6-4.4,356.7z"/>
		<path class="st20" d="M47.1,368c6.1,2.6,3.1,13.6,8.3,10.5C63.1,373.9,47.1,368,47.1,368z"/>
		<path class="st20" d="M-19.6,388.8c-4.9-1.5-2.4,10-5.9,7.5C-31.2,392.3-23.4,386.3-19.6,388.8z"/>
	</g>
	<g>
		<path class="st12" d="M526.8,349.7c0-26.3,21.3-47.7,47.7-47.7c26.3,0,47.7,21.3,47.7,47.7c0,17.1-9,32.1-22.5,40.5
			c-0.5,4.2-4.1,8.7-17.2,8.7c-22.8,0-36-0.6-33.2-8.7C535.7,381.8,526.8,366.8,526.8,349.7z"/>
		<path class="st17" d="M556.2,364.3c0,0,14.5,17.5,1.5,26.3c-13,8.8,29.1,4.1,30.4,2.8c1.3-1.3,12.2-15.1-21.3-33.7
			C555.1,354.1,553.2,363,556.2,364.3z"/>
		<path class="st18" d="M564,341.9c1.4-8.7,5.2-13.5,10.5-15.8"/>
		<path class="st18" d="M564,341.9c6.7-5.8,8.6-7,14.2-5.4"/>
		<path class="st19" d="M533.4,345.6c7.1-4,12-2.7,15.5,1.9"/>
		<path class="st19" d="M534.1,352.6c4.7-6.7,9.6-7.7,14.7-5.2"/>
		<path class="st20" d="M564,342.8c0,0,16.9-0.8,26.2,10.5c0.2,0.2,0.5,0,0.4-0.2c-1-3.5-4.3-13.9-9.6-14.5c0,0-1.8,1.6-2.6,0.8
			C577.6,338.5,564,335.3,564,342.8z"/>
		<path class="st20" d="M549.3,348c0,0-14.1,9.4-14.9,23.9c0,0.3-0.4,0.3-0.5,0.1c-1.3-3.4-4.7-13.8-0.9-17.3c0,0,2.4,0.3,2.6-0.9
			C535.8,352.6,544.9,342,549.3,348z"/>
		<path class="st20" d="M600.9,359.4c6.1,2.6,3.1,13.6,8.3,10.5C616.9,365.2,600.9,359.4,600.9,359.4z"/>
		<path class="st20" d="M534.2,380.1c-4.9-1.5-2.4,10-5.9,7.5C522.5,383.7,530.4,377.7,534.2,380.1z"/>
	</g>
	<g>
		<path class="st21" d="M251.4,245h79.7c0,0,32,21.6,18.2,30.3c-5.6,3.5-8.9,2.1-10.9-0.7l5.1,20.5c1.8,7.3-3.7,14.5-11.3,14.5
			h-81.4c-7.5,0-13.1-7-11.3-14.4l5-21c-2,3.1-5.3,4.7-11.1,1.1C219.6,266.6,251.4,245,251.4,245z"/>
		<line class="st24" x1="327.4" y1="266.9" x2="300.2" y2="266.9"/>
		<circle class="st2" cx="312.9" cy="271.4" r="5.2"/>
		<line class="st24" x1="283.3" y1="266.9" x2="256.1" y2="266.9"/>
		<line class="st24" x1="298.1" y1="289.3" x2="272.7" y2="294.6"/>
		<circle class="st2" cx="268.8" cy="271.4" r="5.2"/>
		<polygon class="st23" points="277.1,202.5 258.1,245 308.8,245 		"/>
		<g>
			<path class="st1" d="M296.6,228.6c-4.6,2-23.4-4.7-28-7.2l2.3-5.1c4,3.9,15.3,5.6,21.1,6.3L296.6,228.6z"/>
			<path class="st1" d="M263.3,233.2l1.8-4c7.3,4.1,28,5.7,36.5,6.2l5.2,6.9c-7.4,2.3-37.1-6.2-42.6-8.8
				C264.2,233.5,263.9,233.3,263.3,233.2z"/>
			<path class="st1" d="M274,209.3l3.1-6.8l10.1,13.5C283.1,215.1,276.8,211.4,274,209.3z"/>
			<path class="st1" d="M265.7,245h-7.6l1-2.2C260.8,243.6,263,244.3,265.7,245z"/>
		</g>
	</g>
	<g>
		<path class="st21" d="M8.9,156l60,9.7c0,0,21.4,20.2,10,25c-4.6,1.9-7,0.5-8.1-1.9l1.3,16.1c0.5,5.8-4.6,10.4-10.3,9.5l-61.3-10
			c-5.7-0.9-9-6.9-6.8-12.2l6.3-15.2c-1.8,2.1-4.6,2.9-8.5-0.6C-17.8,168.4,8.9,156,8.9,156z"/>
		<line class="st30" x1="63.4" y1="181.8" x2="42.9" y2="178.5"/>
		<ellipse transform="matrix(0.1603 -0.9871 0.9871 0.1603 -137.4434 205.2977)" class="st2" cx="51.9" cy="183.4" rx="4" ry="4"/>
		<line class="st30" x1="30.2" y1="176.4" x2="9.7" y2="173.1"/>
		<line class="st30" x1="38.6" y1="195.1" x2="18.8" y2="196"/>
		<ellipse transform="matrix(0.1603 -0.9871 0.9871 0.1603 -159.9978 167.9969)" class="st2" cx="18.7" cy="178" rx="4" ry="4"/>
		<polygon class="st23" points="33.4,127.1 13.9,156.8 52.1,163 		"/>
		<g>
			<path class="st1" d="M44.9,149.2c-3.7,0.9-17.1-6.4-20.2-8.8l2.4-3.6c2.5,3.4,10.8,6.1,15.2,7.3L44.9,149.2z"/>
			<path class="st1" d="M19.3,148.6l1.8-2.8c5,4,20.4,7.7,26.8,9.2l3,5.8c-5.9,0.8-27.2-9.2-31-11.9
				C19.9,148.9,19.7,148.8,19.3,148.6z"/>
			<path class="st1" d="M30.2,131.9l3.1-4.8l6,11.4C36.4,137.4,32.1,133.9,30.2,131.9z"/>
			<path class="st1" d="M19.6,157.8l-5.7-0.9l1-1.5C16.1,156.1,17.7,156.9,19.6,157.8z"/>
		</g>
	</g>
	<g>
		<circle class="st12" cx="224.4" cy="267.4" r="33.5"/>
		<g>
			<path class="st13" d="M209.9,263.1h7.2c-0.2,12.1-14.6,12.1-14.4,0H209.9z"/>
			<path class="st2" d="M217.1,263.1c0,0,1.6,10.3-4.5,11.8C212.6,274.8,216.6,270.5,217.1,263.1z"/>
			<path class="st2" d="M212.8,263.1c0.3,0.5,0.5,1.1,0.5,1.7c0,1.8-1.4,3.2-3.2,3.2c-1.8,0-3.2-1.4-3.2-3.2c0-0.6,0.2-1.2,0.5-1.7
				h2.4H212.8z"/>
		</g>
		<g>
			<path class="st13" d="M238.9,263.1h-7.2c0.2,12.1,14.6,12.1,14.4,0H238.9z"/>
			<path class="st2" d="M231.7,263.1c0,0-1.6,10.3,4.5,11.8C236.2,274.8,232.3,270.5,231.7,263.1z"/>
			<path class="st2" d="M236,263.1c-0.3,0.5-0.5,1.1-0.5,1.7c0,1.8,1.4,3.2,3.2,3.2c1.8,0,3.2-1.4,3.2-3.2c0-0.6-0.2-1.2-0.5-1.7
				h-2.4H236z"/>
		</g>
		<path class="st2" d="M234.2,281.8c0,0-10.5-9.2-17.8-2.4c-1.4,2.6,6.1,3.4,9.2,1.4C227.7,279.4,234.2,281.8,234.2,281.8z"/>
		<path class="st14" d="M211.7,250.3c-2.9,0-5,0.8-5.7,3.3"/>
		<path class="st14" d="M208.8,243.7c0,2.9,0.8,5,3.2,5.7"/>
		<path class="st14" d="M202.3,246.8c2.9,0,5-0.8,5.7-3.2"/>
		<path class="st14" d="M205.5,253.3c-0.2-2.9-1.1-4.9-3.7-5.4"/>
	</g>
	<path class="st31" d="M-12-11h1642v848.5C1175.2,502.1,625.4,411.7-12,431V-11z"/>
</g>
<g id="Layer_4">
	<path class="st32" d="M1630,842.4c0,0,0-233.1,0-268.8C927.4,559.4,945.4,303.7-19.6,388.8l0,71.4
		C957.4,385.7,788.3,809.6,1630,842.4z"/>
</g>
</svg>
